<svg width="66" height="66" viewBox="0 0 66 66" fill="none" xmlns="http://www.w3.org/2000/svg">
<path d="M35.6269 14.5066C35.6306 13.402 34.7381 12.5037 33.6336 12.5C32.529 12.4964 31.6306 13.3888 31.627 14.4934L35.6269 14.5066ZM32.082 54.1193C32.8605 54.9029 34.1268 54.9071 34.9105 54.1286L47.6803 41.4427C48.4639 40.6643 48.4681 39.3979 47.6896 38.6143C46.9112 37.8307 45.6448 37.8265 44.8612 38.605L33.5102 49.8813L22.2339 38.5304C21.4554 37.7467 20.1891 37.7426 19.4055 38.521C18.6219 39.2995 18.6177 40.5658 19.3962 41.3494L32.082 54.1193ZM31.627 14.4934L31.5009 52.7031L35.5009 52.7163L35.6269 14.5066L31.627 14.4934Z" fill="white"/>
<circle cx="33" cy="33" r="31" stroke="white" stroke-width="3"/>
</svg>
