<svg width="32" height="32" viewBox="0 0 32 32" fill="none" xmlns="http://www.w3.org/2000/svg">
<path d="M0.590459 28.0457C-0.193162 28.8242 -0.197339 30.0905 0.581129 30.8741C1.3596 31.6578 2.62592 31.6619 3.40954 30.8835L0.590459 28.0457ZM31.1075 2.54195C31.1111 1.43739 30.2186 0.539006 29.1141 0.535362L11.1142 0.475991C10.0096 0.472346 9.11124 1.36482 9.10759 2.46938C9.10395 3.57395 9.99642 4.47232 11.101 4.47597L27.1009 4.52874L27.0481 20.5287C27.0445 21.6332 27.937 22.5316 29.0415 22.5352C30.1461 22.5389 31.0445 21.6464 31.0481 20.5419L31.1075 2.54195ZM3.40954 30.8835L30.517 3.95422L27.6979 1.11648L0.590459 28.0457L3.40954 30.8835Z" fill="white"/>
</svg>
