<svg width="53" height="54" viewBox="0 0 53 54" fill="none" xmlns="http://www.w3.org/2000/svg">
<path d="M0.590459 49.6856C-0.193162 50.4641 -0.197339 51.7304 0.581129 52.514C1.3596 53.2977 2.62592 53.3018 3.40954 52.5234L0.590459 49.6856ZM52.423 3.00649C52.4266 1.90192 51.5342 1.00354 50.4296 0.9999L32.4297 0.940527C31.3251 0.936883 30.4268 1.82936 30.4231 2.93392C30.4195 4.03848 31.3119 4.93686 32.4165 4.9405L48.4164 4.99328L48.3636 20.9932C48.36 22.0978 49.2525 22.9961 50.357 22.9998C51.4616 23.0034 52.36 22.111 52.3636 21.0064L52.423 3.00649ZM3.40954 52.5234L51.8325 4.41876L49.0135 1.58102L0.590459 49.6856L3.40954 52.5234Z" fill="white"/>
</svg>
