<svg width="73" height="69" viewBox="0 0 73 69" fill="none" xmlns="http://www.w3.org/2000/svg">
<path d="M2.00611 32.0147C0.901545 32.011 0.00316606 32.9035 -0.000477314 34.0081C-0.00412069 35.1126 0.888351 36.011 1.99291 36.0146L2.00611 32.0147ZM71.6644 35.6587C72.448 34.8802 72.4522 33.6139 71.6737 32.8303L58.9878 20.0604C58.2094 19.2768 56.943 19.2726 56.1594 20.0511C55.3758 20.8296 55.3716 22.0959 56.1501 22.8795L67.4264 34.2305L56.0755 45.5068C55.2918 46.2853 55.2877 47.5516 56.0661 48.3352C56.8446 49.1188 58.1109 49.123 58.8945 48.3445L71.6644 35.6587ZM1.99291 36.0146L70.2482 36.2398L70.2614 32.2398L2.00611 32.0147L1.99291 36.0146Z" fill="white"/>
</svg>
