<svg width="66" height="70" viewBox="0 0 66 70" fill="none" xmlns="http://www.w3.org/2000/svg">
<path d="M34.9995 2.0135C34.9993 0.908926 34.1038 0.00745343 32.9992 1.19209e-07C31.8947 -0.0074532 30.9994 0.881935 30.9996 1.9865L34.9995 2.0135ZM31.5955 69.4137C32.3767 70.2 33.643 70.2085 34.4239 69.4327L47.1496 56.7907C47.9305 56.0149 47.9303 54.7486 47.1492 53.9623C46.368 53.176 45.1017 53.1674 44.3208 53.9432L33.009 65.1806L21.6939 53.7905C20.9127 53.0042 19.6464 52.9956 18.8655 53.7714C18.0846 54.5472 18.0848 55.8135 18.866 56.5998L31.5955 69.4137ZM30.9996 1.9865L31.0095 67.9955L35.0094 68.0225L34.9995 2.0135L30.9996 1.9865Z" fill="black"/>
</svg>
