<svg width="57" height="57" viewBox="0 0 57 57" fill="none" xmlns="http://www.w3.org/2000/svg">
<path d="M31.0498 12.2839C31.0534 11.1794 30.161 10.281 29.0564 10.2774C27.9518 10.2737 27.0535 11.1662 27.0498 12.2707L31.0498 12.2839ZM27.5204 47.1939C28.2989 47.9775 29.5652 47.9817 30.3488 47.2032L43.1187 34.5174C43.9023 33.7389 43.9065 32.4726 43.128 31.6889C42.3495 30.9053 41.0832 30.9011 40.2996 31.6796L28.9486 42.9559L17.6723 31.605C16.8938 30.8214 15.6275 30.8172 14.8439 31.5956C14.0602 32.3741 14.0561 33.6404 14.8345 34.4241L27.5204 47.1939ZM27.0498 12.2707L26.9393 45.7778L30.9393 45.7909L31.0498 12.2839L27.0498 12.2707Z" fill="white"/>
<circle cx="28.5" cy="28.5" r="27" stroke="white" stroke-width="3"/>
</svg>
