<svg width="36" height="31" viewBox="0 0 36 31" fill="none" xmlns="http://www.w3.org/2000/svg">
<path d="M1.52223 27.6523C0.701207 28.3913 0.69726 29.5936 1.51341 30.3379C2.32956 31.0822 3.65675 31.0866 4.47777 30.3477L1.52223 27.6523ZM35.0961 2.00688C35.0996 0.958093 34.1639 0.104802 33.0062 0.101001L14.1412 0.0390772C12.9835 0.0352778 12.0422 0.882407 12.0388 1.9312C12.0354 2.97998 12.971 3.83327 14.1287 3.83708L30.8976 3.89212L30.8478 19.0841C30.8443 20.1329 31.78 20.9862 32.9377 20.99C34.0953 20.9938 35.0366 20.1467 35.04 19.0979L35.0961 2.00688ZM4.47777 30.3477L34.4778 3.34766L31.5222 0.652341L1.52223 27.6523L4.47777 30.3477Z" fill="black"/>
</svg>
