<svg width="266" height="358" viewBox="0 0 266 358" fill="none" xmlns="http://www.w3.org/2000/svg">
<path d="M179.832 208.721C179.832 208.721 164.253 303.609 198.306 318.281C232.359 332.954 219.216 303.045 220.931 269.75C222.645 236.454 247.811 192.437 247.811 192.437L179.832 208.721Z" fill="#7D3413"/>
<path d="M29.4883 144.468C29.4883 144.468 17.1696 236.129 38.0601 294.579C44.918 313.766 59.2805 337.497 78.8209 336.904C98.3614 336.31 90.5604 311.896 87.7785 295.143C83.9365 272.006 104.923 220.652 104.923 220.652C104.923 220.652 51.2037 138.26 29.4883 144.468Z" fill="#7D3413"/>
<path d="M222.495 310.765C224.672 311.923 228.306 314.381 229.854 318.472C230.13 319.2 229.382 319.888 228.628 319.619C224.855 318.27 216.396 314.796 218.78 311.491C219.597 310.359 221.225 310.089 222.495 310.765Z" fill="#E0956B"/>
<path d="M216.235 315.082C218.238 316.505 221.509 319.4 222.485 323.646C222.659 324.4 221.821 324.986 221.11 324.623C217.548 322.807 209.624 318.291 212.445 315.327C213.412 314.31 215.066 314.252 216.235 315.082Z" fill="#E0956B"/>
<path d="M209.113 317.222C210.537 319.189 212.668 322.939 212.162 327.238C212.072 328.003 211.079 328.291 210.526 327.726C207.753 324.901 201.747 318.167 205.429 316.263C206.691 315.611 208.283 316.075 209.113 317.222Z" fill="#E0956B"/>
<path d="M317.507 263.019C286.596 320.944 258.495 329.642 242.287 329.337C237.819 329.255 234.258 328.487 231.789 327.877C230.567 327.572 229.558 327.153 228.754 326.626C222.03 322.214 229.32 310.139 242.075 294.013C249.983 284.014 247.386 248.093 243.483 218.019C238.706 219.499 233.769 220.902 228.684 222.229C216.835 225.333 204.189 228.057 190.874 230.482V230.545C190.219 294.864 162.76 343.044 121.492 351.577C114.452 353.031 109.084 353.024 105.22 351.919C100.681 350.618 98.219 347.806 97.5697 344.066C96.2003 336.187 102.912 324.22 115.211 313.764C127.535 303.289 126.655 267.933 123.318 237.973C105.625 237.04 91.2114 232.507 79.4591 225.764C28.8818 196.719 27.7695 126.693 27.7695 126.693L69.2047 61.4666C69.2047 61.4666 75.9552 61.9555 86.6853 61.746C106.738 61.3524 140.676 58.5209 170.359 45.4997C171.793 44.8712 173.214 44.2167 174.622 43.5443C202.061 30.3772 240.963 18.6067 273.713 30.6184C294.536 38.2495 312.866 55.4925 324.181 88.0994C324.181 88.0994 324.206 88.1883 324.264 88.3533C324.804 90.0675 327.922 100.238 330.938 115.589C337.836 150.755 344.156 213.093 317.507 263.019Z" fill="#904213"/>
<path d="M150.013 198.078C128.237 238.709 141.494 265.799 134.249 301.352C129.497 324.677 110.249 337.8 97.5708 344.066C96.2014 336.187 102.913 324.22 115.212 313.764C127.537 303.288 126.656 267.932 123.319 237.973C105.626 237.04 91.2125 232.507 79.4602 225.764C77.9493 184.478 77.21 140.66 78.8623 107.926C79.7302 90.702 82.514 75.1287 86.6864 61.7456C106.739 61.352 125.403 58.2767 158.763 50.0234C200.984 123.127 170.688 159.503 150.013 198.078Z" fill="#954A22"/>
<path d="M148.057 156.882C132.326 178.297 126.34 199.971 124.18 215.519C122.296 229.073 123.318 237.967 123.318 237.967C63.0847 235.625 36.5135 199.539 25.0762 163.37C23.1153 157.193 21.6045 151.01 20.4409 144.991C14.9826 116.79 17.2006 92.2208 17.5799 88.5703C17.6121 88.2592 17.6314 88.1005 17.6314 88.1005C17.6314 88.1005 18.0943 87.7259 18.9622 87.0403L18.975 87.0276C29.6473 78.5648 101.363 23.3566 134.653 39.7426C136.652 40.7266 138.568 41.844 140.388 43.0756C171.324 64.0072 175.863 119.044 148.057 156.882Z" fill="#9A572C"/>
<path d="M123.318 237.968C63.0847 235.625 36.5134 199.539 25.0762 163.371C42.9682 183.236 77.9744 214.008 124.18 215.519C122.296 229.073 123.318 237.968 123.318 237.968Z" fill="#954A22"/>
<path d="M138.909 130.618C114.221 201.805 56.1413 172.29 20.4409 144.991C14.9826 116.79 17.2006 92.2208 17.5799 88.5703L18.9622 87.0403L18.975 87.0276C29.6473 78.5648 101.363 23.3566 134.653 39.7426C136.652 40.7266 138.568 41.844 140.388 43.0756C149.735 62.2296 152.924 90.2019 138.909 130.618Z" fill="#A4643C"/>
<path d="M138.907 84.4388C139.208 128.339 47.845 132.217 21.7765 109.415C16.9772 105.222 13.7479 100.279 11.7812 94.9103C3.04352 71.0983 19.1451 38.906 33.5924 26.2886C34.8776 25.163 36.2965 24.1371 37.833 23.2044C39.3863 27.9488 40.6714 33.3446 41.3921 39.3695C44.3752 35.811 46.3084 31.6342 45.6102 27.0226C45.2971 24.9535 44.6157 22.6528 43.6211 20.2917C65.2593 11.3375 100.144 15.1829 109.429 23.0997C114.173 27.1438 120.313 33.2678 125.755 41.4937C132.861 52.2135 138.784 66.5133 138.907 84.4388Z" fill="#904213"/>
<path d="M138.907 84.4387C139.208 128.339 47.845 132.217 21.7765 109.415C16.9772 105.222 13.7479 100.279 11.7812 94.9102C38.1461 105.178 125.285 132.244 125.755 41.4937C132.861 52.2134 138.784 66.5132 138.907 84.4387Z" fill="#823B13"/>
<path d="M41.3929 39.3698C34.8558 47.1819 23.263 52.0374 23.263 52.0374C23.263 52.0374 -11.6049 34.3823 5.4571 10.1075C12.385 0.254338 19.9327 -1.23572 26.6093 1.45675C36.3808 5.3904 44.2866 18.2839 45.6103 27.0229C46.3092 31.6346 44.376 35.8108 41.3929 39.3698Z" fill="#904213"/>
<path d="M43.6232 20.2908C41.5614 21.1403 39.1583 23.6518 38.165 25.1844C34.6566 14.4754 29.444 5.13526 26.6113 1.45557C34.0697 4.45659 40.4389 12.6826 43.6232 20.2908Z" fill="#823B13"/>
<path d="M4.8896 15.7443C2.03575 24.4096 6.26799 33.2844 7.24842 33.1536C8.14655 33.0343 5.89961 25.4127 9.30636 15.4986C11.786 8.28391 15.6454 4.55472 15.07 4.09635C14.3654 3.53639 7.38214 8.17854 4.8896 15.7443Z" fill="#954A22"/>
<path d="M147.551 28.2524C144.78 40.2133 131.337 47.8158 125.387 50.646C123.644 51.4739 122.543 51.893 122.543 51.893C122.543 51.893 118.118 49.4709 113.437 45.5423C107.358 40.4558 100.838 32.8367 102.972 24.7041C106.754 10.3046 130.309 -13.8718 144.701 12.0314C145.332 13.1736 145.869 14.2878 146.31 15.3804C148.232 20.1089 148.444 24.407 147.551 28.2524Z" fill="#904213"/>
<path d="M47.6137 56.6258C44.4345 60.8521 41.5717 65.8618 42.068 71.9921C42.5643 78.1224 44.2307 85.6215 54.2408 78.4798C64.2501 71.3382 64.002 65.4536 63.2569 61.2851C62.5124 57.1165 54.0697 48.0436 47.6137 56.6258Z" fill="#662E18"/>
<path d="M51.1118 62.4702C49.4409 63.9564 49.2718 68.476 51.5104 69.8855C53.749 71.2949 57.0117 69.8207 57.3165 66.414C57.6308 62.8955 54.4272 59.5212 51.1118 62.4702Z" fill="#41221B"/>
<path d="M51.5391 63.4682C50.8132 64.1139 50.7399 66.0775 51.712 66.6902C52.6847 67.3022 54.1023 66.6622 54.2348 65.1817C54.3711 63.6523 52.9792 62.1864 51.5391 63.4682Z" fill="#98727A"/>
<path d="M99.1007 56.6258C102.28 60.8521 105.143 65.8618 104.646 71.9921C104.15 78.1224 102.484 85.6215 92.4736 78.4798C82.4636 71.3382 82.7124 65.4536 83.4569 61.2851C84.2026 57.1165 92.6453 48.0436 99.1007 56.6258Z" fill="#662E18"/>
<path d="M95.603 62.4702C97.2739 63.9564 97.443 68.476 95.2044 69.8855C92.9658 71.2949 89.7031 69.8207 89.3983 66.414C89.084 62.8955 92.2882 59.5212 95.603 62.4702Z" fill="#41221B"/>
<path d="M90.8281 63.4682C90.1023 64.1139 90.029 66.0775 91.0011 66.6902C91.9732 67.3028 93.3914 66.6622 93.5238 65.1817C93.6601 63.6523 92.2682 62.1864 90.8281 63.4682Z" fill="#98727A"/>
<path d="M95.7703 122.534C95.6366 122.793 95.4964 123.053 95.3511 123.307C94.5244 124.769 93.5523 126.06 92.4516 127.18C92.0157 127.638 91.558 128.063 91.0771 128.466C81.8868 136.19 66.3491 134.264 57.8235 128.659C57.8177 128.659 57.8177 128.659 57.8177 128.659C57.4268 128.4 57.0469 128.135 56.6836 127.859C54.8848 126.496 53.4826 124.957 52.65 123.308C42.1913 102.662 58.8624 71.4687 63.2875 65.5321C67.2652 60.1916 73.8132 59.1872 78.8638 61.0137C81.3223 61.9076 83.4285 63.4687 84.7136 65.5321C88.5743 71.7328 107.118 101.023 95.7703 122.534Z" fill="#E0956B"/>
<path d="M95.771 122.534C94.9385 110.639 91.5697 78.2589 78.8652 61.0127C81.3237 61.9066 83.4299 63.4677 84.715 65.5311C88.575 71.7324 107.118 101.023 95.771 122.534Z" fill="#C37D59"/>
<path d="M22.1883 41.2454C22.1883 41.2454 0.164317 27.5488 14.6695 15.1301C29.1747 2.71146 36.4248 26.2397 36.4248 26.2397C36.4248 26.2397 25.6593 33.4029 22.1883 41.2454Z" fill="#662E18"/>
<path d="M126.194 41.2454C126.194 41.2454 148.218 27.5488 133.712 15.1301C119.207 2.71146 111.957 26.2397 111.957 26.2397C111.957 26.2397 122.722 33.4029 126.194 41.2454Z" fill="#662E18"/>
<path d="M82.3621 109.955C81.563 111.473 79.3842 111.699 79.3842 111.699C74.2274 118.446 68.9531 112.029 68.9531 112.029C68.1096 111.693 67.2545 111.152 66.6682 110.385C66.6682 110.379 66.6624 110.379 66.6572 110.379C66.6515 110.374 66.6515 110.374 66.6515 110.374C65.5116 108.889 65.3605 106.561 68.2105 103.284C70.7358 100.382 77.2054 100.266 79.8426 103.323C82.7588 106.711 82.9992 108.741 82.3621 109.955Z" fill="#61311B"/>
<path d="M67.6326 106.997C68.1778 107.829 70.752 107.015 71.3126 106.838C73.4663 106.157 76.1312 104.474 75.8444 103.343C75.6059 102.403 73.3397 101.896 71.5614 102.363C68.8689 103.068 67.0289 106.077 67.6326 106.997Z" fill="#935F4B"/>
<path d="M82.3619 109.956C81.5628 111.473 79.384 111.699 79.384 111.699C74.2272 118.446 68.9529 112.03 68.9529 112.03C68.1094 111.693 67.2543 111.152 66.668 110.385C66.8634 110.49 68.4951 111.284 70.3216 109.287C70.3216 109.287 70.735 114.357 74.6233 113.949C78.5116 113.541 78.3495 109.044 78.3495 109.044C78.3495 109.044 79.1326 111.142 82.3619 109.956Z" fill="#4F2B19"/>
<path d="M92.4516 127.18C92.0157 127.638 91.5579 128.062 91.0771 128.466C80.9873 127.384 74.2657 123.125 74.2657 123.125C68.6339 127.45 62.5276 128.593 57.8235 128.659C57.8177 128.659 57.8177 128.659 57.8177 128.659C57.4268 128.4 57.0468 128.135 56.6836 127.859C67.0639 125.894 74.2657 114.778 74.2657 114.778C78.9204 121.64 87.0602 125.364 92.4516 127.18Z" fill="#C37D59"/>
<path d="M83.9346 128.212C84.0053 128.835 79.1012 130.342 73.5054 130.582C68.0754 130.815 63.0627 129.81 63.0762 129.193C63.0858 128.768 65.462 129.117 68.8701 127.722C72.3707 126.289 72.8753 124.708 74.9121 124.861C76.6543 124.991 76.7244 126.205 79.5474 127.231C82.1833 128.189 83.8928 127.845 83.9346 128.212Z" fill="#EBA07A"/>
<path d="M59.2689 79.008C50.9748 97.7988 56.0769 118.533 58.2756 118.568C59.7228 118.591 57.9015 109.611 63.7384 96.8262C69.2256 84.8081 76.5213 80.2891 75.6572 70.6709C75.5936 69.9636 75.0599 64.0251 72.3462 63.3147C68.5287 62.3148 62.2906 72.1622 59.2689 79.008Z" fill="#EBA07A"/>
<path d="M18.2169 71.3241C20.3604 72.6567 27.305 56.8148 49.0076 42.8807C69.5413 29.6971 86.4979 28.9993 86.0884 25.2257C85.6763 21.4298 67.9417 16.8765 52.3185 22.2831C24.3715 31.954 15.0789 69.3738 18.2169 71.3241Z" fill="#954A22"/>
<path d="M147.552 28.2517C144.781 40.2126 131.339 47.8152 125.389 50.6454C125.389 50.6403 125.389 50.6403 125.389 50.6403C125.389 50.6403 143.999 35.1095 146.312 15.3804C148.234 20.1082 148.446 24.4063 147.552 28.2517Z" fill="#823B13"/>
<path d="M113.648 13.1281C114.199 13.7464 117.103 10.6032 123.415 8.63259C131.369 6.14962 137.04 7.92853 137.238 6.91592C137.463 5.76681 130.524 1.63254 123.746 3.40128C116.901 5.18907 112.908 12.297 113.648 13.1281Z" fill="#954A22"/>
<path d="M228.754 326.626C222.03 322.213 229.32 310.138 242.075 294.012C249.983 284.013 247.386 248.092 243.483 218.019C238.707 219.498 233.769 220.901 228.684 222.228C242.024 194.065 254.599 171.553 254.599 171.553C254.599 171.553 291.759 294.355 228.754 326.626Z" fill="#954A22"/>
<path d="M243.485 218.018C265.129 202.603 254.601 171.556 254.601 171.556C254.601 171.556 240.538 208.272 190.874 230.546C190.874 230.546 225.026 231.164 243.485 218.018Z" fill="#823B13"/>
<path d="M317.509 263.019C286.598 320.944 258.497 329.642 242.289 329.337C287.247 304.45 317.663 252.042 319.02 157.446C319.99 89.5408 293.059 50.1091 273.714 30.6187C294.538 38.2498 312.867 55.4928 324.182 88.0997C324.182 88.0997 324.208 88.1885 324.266 88.3536C324.806 90.0677 327.924 100.238 330.939 115.589C337.838 150.755 344.157 213.092 317.509 263.019Z" fill="#823B13"/>
<path d="M190.875 189.168C201.501 295.332 162.761 343.045 121.493 351.577C114.453 353.031 109.085 353.025 105.221 351.92C131.008 342.436 174.899 272.812 190.875 189.168Z" fill="#823B13"/>
<path d="M176.355 49.6608C176.383 59.9628 282.766 76.7163 288.364 60.383C291.097 52.4065 270.414 34.7261 249.218 31.0382C237.28 28.9609 224.496 32.8514 198.928 40.6317C183.876 45.2122 176.35 47.5022 176.355 49.6608Z" fill="#954A22"/>
<path d="M97.819 337.844C95.3958 338.331 91.1977 339.646 88.5174 343.121C88.0404 343.739 88.5553 344.612 89.3551 344.568C93.3617 344.354 102.477 343.443 101.163 339.601C100.713 338.283 99.2321 337.56 97.819 337.844Z" fill="#E0956B"/>
<path d="M102.549 343.764C100.215 344.554 96.2362 346.392 94.0586 350.177C93.6716 350.85 94.3017 351.649 95.0886 351.505C99.0302 350.784 107.938 348.723 106.105 345.08C105.478 343.831 103.911 343.303 102.549 343.764Z" fill="#E0956B"/>
<path d="M108.741 347.845C106.803 349.321 103.664 352.302 102.89 356.563C102.752 357.32 103.619 357.88 104.314 357.498C107.795 355.584 115.516 350.853 112.549 347.979C111.532 346.994 109.872 346.983 108.741 347.845Z" fill="#E0956B"/>
<path d="M229.231 320.663C227.195 322.047 223.854 324.882 222.765 329.116C222.572 329.868 223.391 330.472 224.11 330.124C227.712 328.377 235.737 324.014 233.004 320.986C232.067 319.947 230.419 319.855 229.231 320.663Z" fill="#E0956B"/>
<path d="M235.933 324.281C234.099 325.91 231.166 329.141 230.664 333.465C230.575 334.234 231.472 334.726 232.139 334.289C235.48 332.101 242.858 326.76 239.728 324.116C238.654 323.21 237.003 323.33 235.933 324.281Z" fill="#E0956B"/>
<path d="M243.246 325.641C242.048 327.75 240.343 331.706 241.319 335.926C241.493 336.676 242.512 336.856 243 336.236C245.445 333.129 250.673 325.79 246.803 324.293C245.477 323.779 243.945 324.411 243.246 325.641Z" fill="#E0956B"/>
<path d="M90.1181 326.344C92.295 327.502 95.9287 329.96 97.4774 334.051C97.7526 334.779 97.0049 335.467 96.2514 335.198C92.4782 333.849 84.0195 330.375 86.4028 327.071C87.2192 325.938 88.8477 325.669 90.1181 326.344Z" fill="#E0956B"/>
<path d="M83.8559 330.662C85.8586 332.086 89.1303 334.981 90.1062 339.226C90.2798 339.981 89.4421 340.566 88.7311 340.204C85.1694 338.387 77.2456 333.871 80.066 330.907C81.0329 329.891 82.6878 329.832 83.8559 330.662Z" fill="#E0956B"/>
<path d="M76.736 332.8C78.1593 334.767 80.2912 338.517 79.7853 342.816C79.6952 343.581 78.702 343.869 78.1484 343.305C75.3762 340.479 69.3702 333.745 73.0515 331.842C74.3135 331.189 75.906 331.652 76.736 332.8Z" fill="#E0956B"/>
</svg>
