<svg width="310" height="363" viewBox="0 0 310 363" fill="none" xmlns="http://www.w3.org/2000/svg">
<path d="M113.852 331.121C113.852 331.121 156.12 343.062 197.67 329.965C239.221 316.868 170.84 162.018 170.84 162.018C170.84 162.018 118.68 194.375 113.852 230.968C109.024 267.562 113.852 331.121 113.852 331.121Z" fill="#7B3313"/>
<path d="M75.3184 214.021C75.3184 214.021 6.96783 225.218 33.7169 300.114C39.4948 316.292 52.5075 351.664 100.8 330.738C149.094 309.811 75.3184 214.021 75.3184 214.021Z" fill="#7B3313"/>
<path d="M66.4901 330.269C64.0917 339.487 56.6878 344.433 55.856 344.973C55.1282 345.441 47.2043 350.453 37.486 348.535C35.7507 348.191 34.1382 347.677 32.6303 347.021C32.6174 347.015 32.6109 347.015 32.598 347.008C13.546 340.417 4.96545 305.569 3.30773 297.983C2.94999 297.729 2.61222 297.438 2.28737 297.112C-0.306113 294.518 -0.761369 290.768 1.26702 288.74C2.27445 287.739 3.69839 287.342 5.19339 287.511C5.06357 287.355 4.94608 287.186 4.82919 287.011C2.78788 283.962 3.06746 280.198 5.453 278.599C6.70128 277.761 8.28089 277.683 9.79528 278.235C9.40522 275.407 10.5818 272.787 12.8182 271.963C15.0022 271.157 17.5375 272.314 19.0842 274.627C19.7281 273.132 20.8847 272.034 22.3668 271.709C25.1747 271.091 28.0807 273.503 28.8672 277.091C28.9971 277.689 29.0623 278.28 29.0623 278.853C31.6687 280.153 39.8075 284.488 46.8989 291.021C50.461 293.888 53.6725 297.021 56.1943 300.043C59.8534 304.438 70.0394 316.645 66.4901 330.269Z" fill="#8F4213"/>
<path d="M50.9184 303.452C53.6511 306.726 61.2472 315.83 58.5996 325.993C56.8086 332.868 51.2873 336.555 50.6699 336.955C50.1242 337.307 44.2153 341.041 36.9688 339.614C26.8492 337.62 22.0629 327.641 20.0298 323.401C15.2846 313.506 11.7847 295.384 20.2783 289.898C28.4482 284.622 43.5686 294.642 50.9184 303.452Z" fill="#E0956B"/>
<path d="M7.95483 290.866C8.53227 291.078 10.1371 291.667 10.5389 293.128C10.8109 294.115 10.3874 294.974 10.3386 295.068C10.2957 295.151 9.82695 296.044 8.81951 296.388C7.41204 296.868 6.09503 295.967 5.53521 295.584C4.22936 294.691 2.48587 292.68 3.15083 291.382C3.79113 290.134 6.40226 290.296 7.95483 290.866Z" fill="#E0956B"/>
<path d="M11.281 282.119C11.7821 282.475 13.1755 283.466 13.179 284.981C13.1814 286.005 12.5469 286.722 12.4753 286.8C12.4124 286.869 11.7252 287.607 10.6619 287.674C9.17749 287.767 8.14417 286.55 7.70477 286.034C6.6803 284.828 5.52721 282.43 6.51056 281.353C7.4569 280.317 9.93289 281.16 11.281 282.119Z" fill="#E0956B"/>
<path d="M17.7879 277.588C18.0798 278.13 18.8911 279.634 18.2249 280.994C17.7744 281.914 16.8879 282.276 16.7893 282.315C16.7023 282.349 15.7595 282.707 14.7768 282.297C13.4039 281.724 13.0151 280.176 12.8494 279.519C12.4635 277.984 12.4899 275.323 13.848 274.792C15.1539 274.282 17.0025 276.132 17.7879 277.588Z" fill="#E0956B"/>
<path d="M26.3699 278.495C26.431 279.107 26.6013 280.808 25.4635 281.807C24.6934 282.483 23.7365 282.476 23.6302 282.474C23.5368 282.472 22.5293 282.44 21.7798 281.683C20.733 280.627 20.9691 279.048 21.0696 278.378C21.3034 276.813 22.3519 274.366 23.8093 274.399C25.2109 274.429 26.2049 276.849 26.3699 278.495Z" fill="#E0956B"/>
<path d="M110.582 353.846C100.552 356.297 93.7267 356.147 89.3651 354.503C86.583 353.457 84.8019 351.805 83.8397 349.823C82.7477 347.593 82.6954 344.941 83.3974 342.296C85.6984 333.625 103.047 314.559 94.0903 296.072C85.1327 277.579 63.5653 226.779 72.3467 181.667C80.9008 137.751 97.4245 103.683 97.4245 103.683C101.357 101.045 106.72 104.977 112.46 112.141C120.663 122.372 129.634 139.201 136.283 152.832C141.64 163.818 145.494 172.717 146.229 174.432C145.832 175.381 145.41 176.389 144.961 177.461C130.244 212.549 148.699 259.67 149.466 297.801C150.234 335.938 134.249 348.073 110.582 353.846Z" fill="#904213"/>
<path d="M107.481 145.676C89.378 166.308 85.5233 240.599 96.6973 265.638C107.865 290.677 112.487 315.716 96.6973 331.121C88.4029 339.214 85.1009 345.591 83.8397 349.823C82.7477 347.594 82.6954 344.941 83.3974 342.295C85.6984 333.624 103.047 314.559 94.0903 296.072C85.1327 277.579 63.5653 226.779 72.3467 181.667C80.9008 137.751 97.4245 103.683 97.4245 103.683C101.357 101.045 106.72 104.977 112.46 112.141C115.132 124.771 114.196 138.019 107.481 145.676Z" fill="#954A22"/>
<path d="M149.465 297.8C150.232 335.937 134.248 348.073 110.581 353.846C100.551 356.296 93.7256 356.146 89.364 354.502C106.148 351.545 139.312 341.703 137.394 310.294C134.892 269.407 95.6888 194.362 136.283 152.831C141.639 163.817 145.494 172.715 146.228 174.431C145.832 175.38 145.409 176.388 144.96 177.46C130.244 212.549 148.698 259.67 149.465 297.8Z" fill="#823B13"/>
<path d="M86.8771 347.708C84.9962 349.355 81.9762 352.628 81.3847 357.061C81.2795 357.85 82.1742 358.368 82.855 357.929C86.2656 355.731 93.8082 350.356 90.7054 347.595C89.641 346.649 87.9744 346.748 86.8771 347.708Z" fill="#E0956B"/>
<path d="M94.0345 350.605C92.3856 352.477 89.8226 356.105 89.8309 360.562C89.832 361.355 90.7913 361.75 91.4093 361.228C94.505 358.612 101.283 352.316 97.8257 349.994C96.6403 349.198 94.9961 349.513 94.0345 350.605Z" fill="#E0956B"/>
<path d="M101.54 351.134C100.586 353.419 99.3422 357.642 100.822 361.819C101.086 362.562 102.131 362.626 102.548 361.937C104.634 358.492 109.016 350.416 104.953 349.346C103.559 348.98 102.096 349.802 101.54 351.134Z" fill="#E0956B"/>
<path d="M234.681 214.021C234.681 214.021 303.031 225.218 276.283 300.114C270.505 316.292 257.492 351.664 209.199 330.738C160.905 309.811 234.681 214.021 234.681 214.021Z" fill="#7B3313"/>
<path d="M243.509 330.269C245.907 339.487 253.311 344.433 254.144 344.973C254.871 345.441 262.795 350.453 272.513 348.535C274.248 348.191 275.861 347.677 277.369 347.021C277.382 347.015 277.388 347.015 277.401 347.008C296.453 340.417 305.034 305.569 306.691 297.983C307.049 297.729 307.387 297.438 307.712 297.112C310.305 294.518 310.76 290.768 308.732 288.74C307.725 287.739 306.301 287.342 304.806 287.511C304.935 287.355 305.053 287.186 305.17 287.011C307.211 283.962 306.932 280.198 304.546 278.599C303.298 277.761 301.718 277.683 300.204 278.235C300.594 275.407 299.417 272.787 297.181 271.963C294.997 271.157 292.462 272.314 290.915 274.627C290.271 273.132 289.114 272.034 287.632 271.709C284.824 271.091 281.918 273.503 281.132 277.091C281.002 277.689 280.937 278.28 280.937 278.853C278.33 280.153 270.192 284.488 263.1 291.021C259.538 293.888 256.327 297.021 253.805 300.043C250.146 304.438 239.96 316.645 243.509 330.269Z" fill="#8F4213"/>
<path d="M259.081 303.452C256.348 306.726 248.752 315.83 251.399 325.993C253.19 332.868 258.712 336.555 259.329 336.955C259.875 337.307 265.784 341.041 273.03 339.614C283.15 337.62 287.936 327.641 289.969 323.401C294.714 313.506 298.214 295.384 289.721 289.898C281.551 284.622 266.43 294.642 259.081 303.452Z" fill="#E0956B"/>
<path d="M302.042 290.866C301.464 291.078 299.859 291.667 299.457 293.128C299.185 294.115 299.609 294.974 299.658 295.068C299.701 295.151 300.169 296.044 301.178 296.388C302.585 296.868 303.902 295.967 304.462 295.584C305.768 294.691 307.511 292.68 306.846 291.382C306.205 290.134 303.595 290.296 302.042 290.866Z" fill="#E0956B"/>
<path d="M298.722 282.119C298.221 282.475 296.828 283.466 296.824 284.981C296.822 286.005 297.456 286.722 297.528 286.8C297.591 286.869 298.278 287.607 299.341 287.674C300.826 287.767 301.859 286.55 302.298 286.034C303.324 284.828 304.476 282.43 303.493 281.353C302.546 280.317 300.07 281.16 298.722 282.119Z" fill="#E0956B"/>
<path d="M292.21 277.588C291.918 278.13 291.107 279.634 291.773 280.994C292.223 281.914 293.11 282.276 293.209 282.315C293.295 282.349 294.238 282.707 295.221 282.297C296.594 281.724 296.983 280.176 297.148 279.519C297.534 277.984 297.508 275.323 296.15 274.792C294.843 274.282 292.995 276.132 292.21 277.588Z" fill="#E0956B"/>
<path d="M283.628 278.495C283.567 279.107 283.397 280.808 284.534 281.807C285.305 282.483 286.261 282.476 286.368 282.474C286.461 282.472 287.469 282.44 288.218 281.683C289.265 280.627 289.029 279.048 288.928 278.378C288.695 276.813 287.646 274.366 286.189 274.399C284.787 274.429 283.792 276.849 283.628 278.495Z" fill="#E0956B"/>
<path d="M199.412 353.846C209.442 356.297 216.267 356.147 220.629 354.503C223.411 353.457 225.192 351.805 226.154 349.823C227.246 347.593 227.298 344.941 226.596 342.296C224.295 333.625 206.946 314.559 215.903 296.072C224.861 277.579 246.428 226.779 237.647 181.667C229.093 137.751 212.569 103.683 212.569 103.683C208.636 101.045 203.274 104.977 197.534 112.141C189.33 122.372 180.36 139.201 173.71 152.832C168.354 163.818 164.499 172.717 163.764 174.432C164.161 175.381 164.583 176.389 165.032 177.461C179.749 212.549 161.294 259.67 160.528 297.801C159.76 335.938 175.744 348.073 199.412 353.846Z" fill="#904213"/>
<path d="M202.513 145.676C220.617 166.308 224.471 240.599 213.297 265.638C202.13 290.677 197.508 315.716 213.297 331.121C221.592 339.214 224.894 345.591 226.155 349.823C227.247 347.594 227.299 344.941 226.597 342.295C224.296 333.624 206.947 314.559 215.904 296.072C224.862 277.579 246.429 226.779 237.648 181.667C229.094 137.751 212.57 103.683 212.57 103.683C208.637 101.045 203.275 104.977 197.535 112.141C194.863 124.771 195.798 138.019 202.513 145.676Z" fill="#954A22"/>
<path d="M160.528 297.8C159.761 335.937 175.745 348.073 199.412 353.846C209.442 356.296 216.267 356.146 220.629 354.502C203.845 351.545 170.681 341.703 172.599 310.294C175.101 269.407 214.304 194.362 173.71 152.831C168.354 163.817 164.499 172.715 163.764 174.431C164.161 175.38 164.583 176.388 165.032 177.46C179.749 212.549 161.295 259.67 160.528 297.8Z" fill="#823B13"/>
<path d="M223.114 347.708C224.995 349.355 228.015 352.628 228.606 357.061C228.712 357.85 227.817 358.368 227.136 357.929C223.725 355.731 216.182 350.356 219.286 347.595C220.35 346.649 222.017 346.748 223.114 347.708Z" fill="#E0956B"/>
<path d="M215.953 350.602C217.602 352.474 220.165 356.102 220.157 360.559C220.156 361.352 219.197 361.747 218.579 361.225C215.483 358.609 208.705 352.313 212.162 349.991C213.348 349.195 214.992 349.51 215.953 350.602Z" fill="#E0956B"/>
<path d="M208.449 351.134C209.403 353.419 210.647 357.642 209.166 361.819C208.903 362.562 207.858 362.626 207.441 361.937C205.355 358.492 200.973 350.416 205.036 349.346C206.43 348.98 207.893 349.802 208.449 351.134Z" fill="#E0956B"/>
<path d="M196.558 163.75C163.4 193.469 155.002 216.91 155.002 216.91C155.002 216.91 146.597 193.469 113.445 163.75C107.335 158.277 102.993 151.783 99.9705 144.841C86.5608 114.095 99.0477 74.4368 99.0477 74.4368L155.002 98.8779L208.986 70.8418C208.986 70.8418 212.997 83.0626 214.668 99.2873C216.8 119.952 215.136 147.103 196.558 163.75Z" fill="#9A572C"/>
<path d="M144.849 133.897C157.32 157.491 153.662 186.053 148.701 187.055C146.461 187.508 145.395 182.051 137.145 172.033C126.605 159.233 122.447 160.979 114.804 150.846C112.455 147.733 101.571 133.306 105.173 117.334C106.068 113.368 107.306 107.879 111.337 106.163C119.978 102.485 136.57 118.233 144.849 133.897Z" fill="#A4643C"/>
<path d="M196.559 163.75C163.401 193.469 155.002 216.909 155.002 216.909C155.002 216.909 146.598 193.469 113.446 163.75C107.336 158.277 102.994 151.783 99.9712 144.84C107.219 152.127 119.726 164.543 128.878 172.804C142.535 185.129 154.554 205.93 154.554 205.93C154.554 205.93 170.842 173.187 192.808 155.085C206.915 143.459 213.044 114.582 214.669 99.2861C216.801 119.951 215.137 147.103 196.559 163.75Z" fill="#954A22"/>
<path d="M209.199 72.6785C209.457 110.586 131.551 113.935 109.322 94.2453C105.23 90.6244 102.476 86.3562 100.799 81.7208C93.3482 61.1591 107.078 33.3615 119.398 22.4665C120.493 21.4949 121.703 20.6085 123.014 19.8037C124.338 23.9004 125.434 28.5598 126.048 33.7621C128.593 30.6893 130.241 27.0831 129.645 23.1003C129.379 21.314 128.797 19.3273 127.949 17.2883C146.4 9.55662 176.147 12.8768 184.064 19.7132C188.109 23.2055 193.345 28.4935 197.985 35.5966C204.045 44.8521 209.094 57.2004 209.199 72.6785Z" fill="#904213"/>
<path d="M209.2 72.6811C209.458 110.588 131.552 113.937 109.323 94.2479C105.231 90.627 102.477 86.3588 100.8 81.7234C123.282 90.5894 197.586 113.961 197.986 35.5986C204.046 44.8547 209.095 57.203 209.2 72.6811Z" fill="#823B13"/>
<path d="M126.049 33.7629C120.475 40.5089 110.59 44.7007 110.59 44.7007C110.59 44.7007 80.8577 29.4559 95.4065 8.49413C101.314 -0.014156 107.75 -1.30062 113.443 1.02441C121.775 4.42091 128.516 15.5544 129.645 23.1005C130.242 27.0838 128.593 30.69 126.049 33.7629Z" fill="#904213"/>
<path d="M127.95 17.2875C126.192 18.0212 124.143 20.19 123.296 21.5135C120.304 12.2662 115.859 4.20142 113.444 1.02344C119.804 3.61458 125.235 10.7177 127.95 17.2875Z" fill="#823B13"/>
<path d="M94.9227 13.3624C92.489 20.845 96.0982 28.5086 96.9341 28.3952C97.7001 28.2918 95.7839 21.7109 98.6893 13.1503C100.803 6.92067 104.095 3.70039 103.604 3.30505C103.003 2.82101 97.0474 6.82959 94.9227 13.3624Z" fill="#954A22"/>
<path d="M216.569 24.1644C214.207 34.4931 202.744 41.0576 197.67 43.5013C196.184 44.2156 195.246 44.578 195.246 44.578C195.246 44.578 191.473 42.4868 187.48 39.0944C182.297 34.7022 176.738 28.1231 178.557 21.101C181.782 8.66691 201.868 -12.2091 214.14 10.1584C214.678 11.1446 215.135 12.1069 215.512 13.0503C217.15 17.1323 217.331 20.8437 216.569 24.1644Z" fill="#904213"/>
<path d="M131.355 48.6636C128.644 52.3133 126.203 56.639 126.626 61.9323C127.05 67.2256 128.471 73.7014 137.005 67.5346C145.541 61.3678 145.329 56.2866 144.694 52.6869C144.059 49.0871 136.86 41.2526 131.355 48.6636Z" fill="#662E18"/>
<path d="M134.337 53.7089C132.912 54.9925 132.768 58.8953 134.676 60.1119C136.585 61.3284 139.368 60.0561 139.627 57.1142C139.896 54.0761 137.164 51.1624 134.337 53.7089Z" fill="#41221B"/>
<path d="M134.704 54.5716C134.085 55.1291 134.022 56.825 134.851 57.3537C135.681 57.8823 136.889 57.3296 137.002 56.0513C137.119 54.7308 135.932 53.4649 134.704 54.5716Z" fill="#98727A"/>
<path d="M175.257 48.6637C177.968 52.3134 180.41 56.6391 179.986 61.9324C179.562 67.2257 178.141 73.7016 169.606 67.5348C161.071 61.368 161.283 56.2867 161.918 52.687C162.554 49.0866 169.752 41.2527 175.257 48.6637Z" fill="#662E18"/>
<path d="M172.274 53.7089C173.698 54.9925 173.843 58.8953 171.934 60.1119C170.026 61.3284 167.243 60.0561 166.984 57.1142C166.715 54.0761 169.447 51.1624 172.274 53.7089Z" fill="#41221B"/>
<path d="M168.204 54.5716C167.584 55.1291 167.522 56.825 168.351 57.3537C169.181 57.8823 170.389 57.3296 170.502 56.0513C170.619 54.7308 169.432 53.4649 168.204 54.5716Z" fill="#98727A"/>
<path d="M172.416 105.575C172.301 105.799 172.183 106.023 172.059 106.242C171.354 107.504 170.525 108.619 169.586 109.586C169.214 109.981 168.824 110.348 168.414 110.696C160.577 117.366 147.329 115.703 140.059 110.863C140.054 110.863 140.054 110.863 140.054 110.863C139.721 110.639 139.397 110.411 139.088 110.172C137.553 108.996 136.358 107.666 135.648 106.242C126.729 88.4151 140.945 61.4792 144.718 56.3533C148.11 51.742 153.693 50.875 158 52.4516C160.096 53.2235 161.893 54.5717 162.988 56.3533C166.28 61.7077 182.091 87 172.416 105.575Z" fill="#E0956B"/>
<path d="M172.415 105.576C171.706 95.3053 168.832 67.3456 157.999 52.4531C160.095 53.225 161.891 54.5732 162.987 56.3548C166.279 61.7092 182.091 87.0015 172.415 105.576Z" fill="#C37D59"/>
<path d="M109.672 35.3841C109.672 35.3841 90.8921 23.5574 103.261 12.8339C115.63 2.11045 121.812 22.4266 121.812 22.4266C121.812 22.4266 112.632 28.6122 109.672 35.3841Z" fill="#662E18"/>
<path d="M198.358 35.3841C198.358 35.3841 217.139 23.5574 204.77 12.8339C192.401 2.11045 186.219 22.4266 186.219 22.4266C186.219 22.4266 195.398 28.6122 198.358 35.3841Z" fill="#662E18"/>
<path d="M160.983 94.7129C160.301 96.0229 158.443 96.2185 158.443 96.2185C154.047 102.045 149.549 96.5046 149.549 96.5046C148.83 96.2138 148.101 95.7468 147.601 95.0848C147.601 95.0801 147.596 95.0801 147.591 95.0801C147.587 95.0754 147.587 95.0754 147.587 95.0754C146.615 93.7936 146.486 91.7835 148.916 88.9538C151.069 86.4479 156.586 86.348 158.835 88.9873C161.321 91.9115 161.526 93.665 160.983 94.7129Z" fill="#61311B"/>
<path d="M148.424 92.1603C148.89 92.8782 151.085 92.1756 151.562 92.0229C153.399 91.4349 155.672 89.9822 155.427 89.0059C155.223 88.194 153.291 87.7558 151.774 88.1588C149.478 88.7685 147.909 91.365 148.424 92.1603Z" fill="#935F4B"/>
<path d="M160.982 94.7137C160.301 96.0236 158.443 96.2193 158.443 96.2193C154.046 102.045 149.549 96.5054 149.549 96.5054C148.829 96.2146 148.101 95.7476 147.6 95.0856C147.767 95.176 149.158 95.8621 150.716 94.1374C150.716 94.1374 151.068 98.5155 154.384 98.1631C157.7 97.8106 157.562 93.9277 157.562 93.9277C157.562 93.9277 158.228 95.7376 160.982 94.7137Z" fill="#4F2B19"/>
<path d="M169.586 109.587C169.215 109.982 168.824 110.349 168.414 110.697C159.81 109.764 154.079 106.085 154.079 106.085C149.277 109.82 144.07 110.806 140.059 110.863C140.055 110.863 140.055 110.863 140.055 110.863C139.721 110.64 139.397 110.411 139.088 110.173C147.939 108.477 154.08 98.877 154.08 98.877C158.048 104.804 164.989 108.02 169.586 109.587Z" fill="#C37D59"/>
<path d="M162.323 110.477C162.384 111.015 158.202 112.316 153.431 112.523C148.801 112.725 144.526 111.857 144.538 111.324C144.546 110.957 146.572 111.259 149.478 110.053C152.463 108.816 152.893 107.451 154.63 107.583C156.116 107.695 156.176 108.743 158.583 109.63C160.83 110.457 162.288 110.16 162.323 110.477Z" fill="#EBA07A"/>
<path d="M141.292 67.9915C134.22 84.2174 138.57 102.121 140.445 102.151C141.679 102.171 140.126 94.4169 145.103 83.3774C149.782 72.9999 156.003 69.0976 155.266 60.7926C155.212 60.1816 154.757 55.054 152.443 54.4407C149.187 53.5778 143.868 62.0808 141.292 67.9915Z" fill="#EBA07A"/>
<path d="M106.285 61.3547C108.113 62.5054 114.034 48.826 132.54 36.7938C150.049 25.4095 164.508 24.8073 164.159 21.5489C163.808 18.271 148.686 14.3394 135.363 19.0082C111.533 27.3591 103.609 59.6705 106.285 61.3547Z" fill="#954A22"/>
<path d="M216.571 24.1626C214.208 34.4913 202.745 41.0558 197.672 43.4995C197.672 43.4948 197.672 43.4948 197.672 43.4948C197.672 43.4948 213.541 30.0844 215.513 13.0479C217.152 17.1305 217.332 20.8418 216.571 24.1626Z" fill="#823B13"/>
<path d="M187.661 11.1035C188.13 11.6375 190.607 8.92356 195.989 7.22179C202.77 5.07768 207.606 6.6138 207.775 5.73971C207.967 4.74754 202.05 1.17716 196.271 2.70505C190.434 4.24822 187.029 10.3857 187.661 11.1035Z" fill="#954A22"/>
</svg>
