<svg width="51" height="52" viewBox="0 0 51 52" fill="none" xmlns="http://www.w3.org/2000/svg">
<path d="M40.0088 28.4922C41.1133 28.4958 42.0117 27.6033 42.0154 26.4988C42.019 25.3942 41.1265 24.4958 40.022 24.4922L40.0088 28.4922ZM8.62589 24.9744C7.84227 25.7529 7.8381 27.0192 8.61656 27.8028L21.3024 40.5727C22.0809 41.3563 23.3472 41.3605 24.1308 40.582C24.9145 39.8035 24.9186 38.5372 24.1402 37.7536L12.8638 26.4026L24.2148 15.1263C24.9984 14.3478 25.0026 13.0815 24.2241 12.2979C23.4457 11.5143 22.1794 11.5101 21.3957 12.2886L8.62589 24.9744ZM40.022 24.4922L10.042 24.3933L10.0288 28.3933L40.0088 28.4922L40.022 24.4922Z" fill="white"/>
<path d="M25.5 50C12.2452 50 1.5 39.2548 1.5 26C1.5 12.7452 12.2452 2 25.5 2C38.7548 2 49.5 12.7452 49.5 26C49.5 39.2548 38.7548 50 25.5 50Z" stroke="white" stroke-width="3"/>
</svg>
