<svg width="258" height="231" viewBox="0 0 258 231" fill="none" xmlns="http://www.w3.org/2000/svg">
<path d="M183.577 231C171.068 231 158.815 226.757 149.072 219.052C143.269 214.463 138.633 208.921 134.15 203.562C129.16 197.598 124.448 191.964 118.58 188.125C108.294 181.406 95.2895 180.61 81.5205 179.768C69.1579 179.012 56.3752 178.23 44.5425 173.061C39.4699 170.84 34.5847 167.799 30.0194 164.021C25.0964 159.966 20.453 154.985 16.2277 149.226C5.15519 134.111 -0.589369 116.838 0.0478519 100.584C0.450334 90.1776 3.47827 79.0849 9.04854 67.6175C16.1905 52.8838 26.0681 40.0125 38.4045 29.3666C60.3773 10.4283 88.7007 0 118.159 0C130.316 0 142.416 1.7817 154.122 5.29574C156.301 5.94958 158.51 6.68805 160.835 7.53986L163.242 7.18221C163.577 7.13234 163.91 7.10817 164.238 7.10817C167.075 7.10817 169.608 8.90447 170.56 11.5536C187.442 19.3569 202.99 30.9901 216.856 46.1927H233.025C236.741 46.1927 239.754 49.2051 239.754 52.9211V55.0982C241.337 52.6551 244.087 51.0356 247.209 51.0356H247.685C252.579 51.0356 256.561 55.0171 256.561 59.9119V76.2968C256.561 81.1911 252.58 85.1731 247.685 85.1731H247.209C245.552 85.1731 244.001 84.7172 242.672 83.9243C252.247 103.313 257.613 123.933 257.898 142.743C258.26 165.922 251.02 186.628 236.961 202.618C230.137 210.389 211.736 228.697 188.381 230.786C186.797 230.927 185.181 231 183.579 231C183.579 231 183.578 231 183.577 231Z" fill="white"/>
<path d="M251.627 143.254C251.938 163.221 246.39 182.633 232.364 198.585C221.417 211.052 205.072 222.988 188.238 224.494C175.989 225.593 163.36 221.822 153.702 214.185C142.158 205.056 135.036 190.962 122.719 182.904C101.124 168.796 71.3221 177.627 47.6921 167.304C43.0124 165.256 38.6984 162.502 34.7648 159.247C29.9899 155.313 48.1122 141.191 44.4495 136.2C35.0489 123.367 48.0245 113.16 48.6487 97.2625C49.0557 86.7224 49.7629 73.165 54.3746 63.6696C61.2792 49.4266 31.9701 44.6104 43.2562 34.8707C72.5296 9.6398 113.78 0.483461 152.644 12.1494C177.006 19.4611 197.692 34.4637 214.31 53.3325C215.585 54.7566 216.819 56.2083 218.04 57.6868C220.577 60.7661 223.032 64.0217 225.392 67.4264C226.803 69.4474 228.173 71.5364 229.502 73.6526C230.872 75.8634 232.202 78.1156 233.477 80.4217C244.153 99.5751 251.301 121.726 251.627 143.254Z" fill="#1481EA"/>
<path d="M168.552 202.609C180.492 202.609 190.171 192.93 190.171 180.99C190.171 169.05 180.492 159.371 168.552 159.371C156.612 159.371 146.933 169.05 146.933 180.99C146.933 192.93 156.612 202.609 168.552 202.609Z" fill="white"/>
<path d="M130.801 65.8057C142.741 65.8057 152.42 56.1265 152.42 44.1866C152.42 32.2466 142.741 22.5674 130.801 22.5674C118.861 22.5674 109.182 32.2466 109.182 44.1866C109.182 56.1265 118.861 65.8057 130.801 65.8057Z" fill="white"/>
<path d="M246.974 63.0513H225.389V73.6488H246.974V63.0513Z" fill="#1481EA"/>
<path d="M248.143 78.8546H247.666C246.48 78.8546 245.518 77.8929 245.518 76.7066V60.3217C245.518 59.1355 246.48 58.1738 247.666 58.1738H248.143C249.329 58.1738 250.29 59.1355 250.29 60.3217V76.7066C250.29 77.8929 249.329 78.8546 248.143 78.8546Z" fill="#1481EA"/>
<path opacity="0.31" d="M238.619 63.0513L235.368 73.6493H232.247L231.581 63.0513H238.619Z" fill="#1F1541"/>
<path d="M245.517 62.877V73.6669L242.681 62.946C242.681 62.946 245.655 62.877 245.517 62.877Z" fill="#1F1541"/>
<path d="M165.835 195.262L190.32 123.882L213.145 196.922" stroke="#1F1541" stroke-width="9.6802" stroke-miterlimit="10"/>
<path d="M233.48 53.3311H161.881V140.892H233.48V53.3311Z" fill="#1F1541"/>
<path d="M162.936 53.3311L161.88 140.892H142.179V53.3311H162.936Z" fill="#1481EA"/>
<path d="M92.2407 54.4385L151.862 80.9983C151.862 80.9983 158.226 85.4251 157.949 95.5234C157.673 105.622 152.831 110.325 152.831 110.325L92.5173 137.992L92.2407 54.4385Z" fill="#1F1541"/>
<path d="M104.825 94.8273C104.431 107.483 100.823 119.082 97.7573 126.786C95.3968 132.714 93.3486 136.336 93.3486 136.336V55.9639C93.3486 55.9639 95.2885 58.5954 97.581 63.1803C101.027 70.0714 105.245 81.3706 104.825 94.8273Z" fill="#1481EA"/>
<path d="M104.825 94.8273C104.432 107.483 100.823 119.082 97.7577 126.786L93.349 129.065L92.4942 129.513L34.7624 159.247C29.9876 155.313 25.7688 150.647 22.1062 145.655C12.7055 132.822 6.60129 117.155 7.22541 101.257C7.63243 90.7169 10.9419 80.4619 15.5541 70.9666C22.4588 56.7235 31.9677 44.6098 43.2538 34.8701L92.264 60.4129L93.349 60.9826L97.5814 63.1799C101.027 70.0714 105.246 81.3706 104.825 94.8273Z" fill="white"/>
<path d="M205.57 94.8318C211.472 94.8318 216.257 90.0475 216.257 84.1456C216.257 78.2438 211.472 73.4595 205.57 73.4595C199.669 73.4595 194.884 78.2438 194.884 84.1456C194.884 90.0475 199.669 94.8318 205.57 94.8318Z" stroke="#1481EA" stroke-width="1.6134" stroke-miterlimit="10"/>
<path d="M176.314 136.746C178.892 136.746 180.983 134.656 180.983 132.078C180.983 129.499 178.892 127.409 176.314 127.409C173.736 127.409 171.646 129.499 171.646 132.078C171.646 134.656 173.736 136.746 176.314 136.746Z" stroke="#1481EA" stroke-width="1.6134" stroke-miterlimit="10"/>
<path d="M223.415 136.746C225.994 136.746 228.084 134.656 228.084 132.078C228.084 129.499 225.994 127.409 223.415 127.409C220.837 127.409 218.747 129.499 218.747 132.078C218.747 134.656 220.837 136.746 223.415 136.746Z" stroke="#1481EA" stroke-width="1.6134" stroke-miterlimit="10"/>
<path d="M28.2399 92.1904L50.9396 112.167L53.8305 114.711L57.0257 117.523L90.7354 147.19L83.9748 154.962L77.8233 150.952L69.622 156.962C67.7093 158.364 65.0622 158.172 63.3712 156.509L46.4947 139.917C45.2439 138.687 44.7568 136.877 45.2217 135.185L48.0764 124.8C48.1519 124.239 47.9288 123.68 47.4875 123.326L44.2646 120.741L36.0729 125.577C34.2409 126.659 31.9166 126.417 30.347 124.98L18.7843 114.393C16.9563 112.72 16.6888 109.935 18.1653 107.945L25.2598 98.3753L24.0075 96.9754L28.2399 92.1904Z" fill="#1F1541"/>
<path d="M57.0695 124.02L50.5789 132.611C49.0838 134.589 49.3276 137.378 51.1431 139.068L63.4492 150.521C65.3176 152.26 68.2161 152.248 70.0698 150.494L78.3955 142.614L57.0695 124.02Z" fill="#1481EA"/>
<path d="M27.6516 98.8442L21.626 106.755C20.1319 108.716 20.3521 111.488 22.1383 113.189L30.8146 121.452C32.7036 123.251 35.6786 123.228 37.5399 121.401L44.9508 114.124L27.6516 98.8442Z" fill="#1481EA"/>
<path d="M164.691 14.2476L134.781 18.688L130.972 19.2536L126.762 19.8788L82.3438 26.4731L83.7975 36.6707L91.1404 36.646L94.7612 46.1469C95.6055 48.3628 97.9322 49.6403 100.255 49.1627L123.438 44.4C125.156 44.0468 126.548 42.7915 127.077 41.1192L130.322 30.8496C130.563 30.3378 131.054 29.9892 131.617 29.9318L135.727 29.5127L139.977 38.0232C140.928 39.9268 143.011 40.9857 145.109 40.632L160.568 38.0257C163.012 37.6137 164.749 35.4214 164.592 32.9476L163.834 21.0595L165.645 20.5644L164.691 14.2476Z" fill="#1F1541"/>
<path d="M123.192 25.3076L123.974 36.0462C124.154 38.5195 122.435 40.7289 119.993 41.1611L103.439 44.0918C100.926 44.5366 98.4991 42.9523 97.8956 40.472L95.186 29.3334L123.192 25.3076Z" fill="#1481EA"/>
<path d="M161.568 20.1528L162.329 30.0678C162.518 32.5265 160.827 34.7339 158.404 35.1918L146.631 37.4157C144.068 37.8998 141.582 36.2647 141.012 33.7193L138.744 23.5838L161.568 20.1528Z" fill="#1481EA"/>
<path d="M114.18 143.994C110.719 147.481 109.174 152.893 110.689 157.567C112.205 162.241 116.917 165.804 121.825 165.583C126.734 165.361 131.24 161.068 131.32 156.155C131.361 153.645 129.339 150.64 126.961 151.447C125.383 151.983 124.762 153.846 124.383 155.469C123.669 158.535 123.055 161.748 123.81 164.804C125.324 170.946 132.564 174.667 138.712 173.179C144.861 171.692 149.417 165.871 150.398 159.621C150.641 158.069 150.672 156.388 149.88 155.031C149.089 153.674 147.239 152.843 145.875 153.622C145.304 153.948 144.895 154.498 144.581 155.075C142.389 159.106 144.474 164.252 147.667 167.547C150.991 170.977 156.234 173.266 160.567 171.258" stroke="#1F1541" stroke-width="3.1612" stroke-miterlimit="10" stroke-linecap="round" stroke-linejoin="round"/>
<path d="M220.222 178.484C224.603 177.382 228.513 174.646 231.239 171.045C233.406 168.182 234.877 164.493 234.021 161.006C233.165 157.519 229.307 154.708 225.931 155.932C225.421 156.117 224.917 156.406 224.647 156.876C224.389 157.327 224.382 157.878 224.442 158.395C224.857 161.997 228.326 164.843 231.949 164.988C235.572 165.134 239.059 162.868 240.84 159.71C242.621 156.552 242.82 152.654 241.869 149.155" stroke="#1F1541" stroke-width="3.1612" stroke-miterlimit="10" stroke-linecap="round" stroke-linejoin="round"/>
</svg>
