<svg width="184" height="181" viewBox="0 0 184 181" fill="none" xmlns="http://www.w3.org/2000/svg">
<path d="M87.5264 180.175C86.7465 180.175 85.9684 180.165 85.1911 180.146C78.6078 179.965 72.0696 179.029 65.7387 177.365C62.948 176.63 60.1591 175.737 57.417 174.699C57.0127 174.793 56.5972 174.842 56.1791 174.842C55.4755 174.842 54.7642 174.706 54.0867 174.423C51.4608 173.328 48.828 172.058 46.2646 170.649C45.4066 170.164 44.6242 169.721 43.8426 169.258C39.7576 166.844 35.86 164.072 32.2591 161.022C27.9347 157.393 23.9486 153.289 20.4301 148.843C19.73 147.958 19.0473 147.058 18.3985 146.172C14.6839 141.115 11.5228 135.625 9.01316 129.867C8.6384 129.007 8.50047 128.088 8.58288 127.195C4.3782 116.957 2.24593 106.098 2.24593 94.8939C2.24593 82.8611 4.7885 70.993 9.65421 60.0992C4.25674 59.6594 0 55.1268 0 49.6183V27.1253C0 21.3262 4.71825 16.6088 10.5165 16.6088H53.6521C64.3603 11.9652 75.7512 9.61171 87.5281 9.61171C92.0998 9.61171 96.6645 9.97779 101.164 10.7021C101.484 4.74687 106.431 0 112.464 0H172.685C178.924 0 184 5.07651 184 11.3163V66.0588C184 69.0646 181.562 71.5023 178.557 71.5023H169.549C171.709 79.078 172.8 86.9157 172.8 94.8939C172.8 101.686 171.998 108.435 170.41 115C177.55 124.894 177.567 138.52 170.124 148.481C164.739 155.684 156.484 159.815 147.473 159.815C146.037 159.815 144.605 159.706 143.19 159.49C143.024 159.633 142.861 159.775 142.698 159.912C140.122 162.119 137.308 164.233 134.353 166.172C131.039 168.365 127.549 170.328 123.997 171.993C112.598 177.418 100.317 180.175 87.5264 180.175Z" fill="white"/>
<path d="M167.356 94.8925C167.356 119.297 156.424 141.126 139.177 155.76C136.7 157.883 134.087 159.834 131.365 161.621C128.28 163.662 125.051 165.486 121.685 167.064C111.333 171.991 99.7479 174.73 87.5269 174.73C86.7921 174.73 86.0574 174.722 85.3226 174.703C79.0446 174.531 72.9566 173.633 67.1228 172.099C63.4664 171.137 59.9192 169.922 56.4901 168.471C53.9857 167.427 51.555 166.248 49.1954 164.95C48.4242 164.515 47.6713 164.088 46.9183 163.644C43.0805 161.375 39.4701 158.809 36.086 155.942C32.0219 152.531 28.3021 148.702 25.0083 144.538C24.355 143.712 23.7201 142.877 23.1033 142.033C19.6377 137.316 16.6796 132.199 14.3122 126.764C10.0485 117.002 7.68896 106.224 7.68896 94.8916C7.68896 50.7992 43.4345 15.0537 87.5269 15.0537C131.619 15.0546 167.356 50.8001 167.356 94.8925Z" fill="#1481EA"/>
<path d="M178.558 11.3152V66.0577H106.592V11.3152C106.592 8.06825 109.218 5.44238 112.465 5.44238H172.685C175.932 5.44238 178.558 8.06825 178.558 11.3152Z" fill="#FAF3EA"/>
<path d="M178.558 11.3152V16.5757H106.592V11.3152C106.592 8.06825 109.218 5.44238 112.465 5.44238H172.685C175.932 5.44238 178.558 8.06825 178.558 11.3152Z" fill="#FFD387"/>
<path d="M159.436 13.1506C160.422 13.1506 161.221 12.3513 161.221 11.3654C161.221 10.3794 160.422 9.58008 159.436 9.58008C158.45 9.58008 157.65 10.3794 157.65 11.3654C157.65 12.3513 158.45 13.1506 159.436 13.1506Z" fill="#FAF3EA"/>
<path d="M165.147 13.1506C166.133 13.1506 166.932 12.3513 166.932 11.3654C166.932 10.3794 166.133 9.58008 165.147 9.58008C164.161 9.58008 163.362 10.3794 163.362 11.3654C163.362 12.3513 164.161 13.1506 165.147 13.1506Z" fill="white"/>
<path d="M171.064 13.1506C172.05 13.1506 172.849 12.3513 172.849 11.3654C172.849 10.3794 172.05 9.58008 171.064 9.58008C170.078 9.58008 169.278 10.3794 169.278 11.3654C169.278 12.3513 170.078 13.1506 171.064 13.1506Z" fill="#7A0C0C"/>
<path d="M121.815 34.4463H113.372V57.1561H121.815V34.4463Z" fill="#FFD387"/>
<path d="M138.702 30.0791H130.259V57.1558H138.702V30.0791Z" fill="white"/>
<path d="M156.17 26.0029H147.727V57.156H156.17V26.0029Z" fill="#7A0C0C"/>
<path d="M173.776 35.9043H165.333V57.1559H173.776V35.9043Z" fill="#1481EA"/>
<path d="M132.789 87.5449C132.789 87.5449 142.53 95.7661 140.177 100.836C137.822 105.905 126.677 99.4745 126.677 99.4745L132.789 87.5449Z" fill="white"/>
<path d="M125.893 99.793C125.893 99.793 135.634 108.014 133.281 113.084C130.926 118.153 119.781 111.722 119.781 111.722L125.893 99.793Z" fill="white"/>
<path d="M119.307 111.307C119.307 111.307 129.048 119.528 126.695 124.597C124.34 129.667 113.195 123.236 113.195 123.236L119.307 111.307Z" fill="white"/>
<path d="M111.918 120.1C111.918 120.1 121.66 128.321 119.306 133.39C116.952 138.46 105.806 132.029 105.806 132.029L111.918 120.1Z" fill="white"/>
<path d="M96.8041 164.969L43.2848 142.404C40.7023 141.315 39.4913 138.338 40.58 135.755L82.777 35.674C83.8657 33.0915 86.842 31.8805 89.4254 32.9692L142.945 55.5341C145.527 56.6228 146.738 59.6 145.649 62.1825L103.453 162.264C102.364 164.846 99.3875 166.057 96.8041 164.969Z" fill="#0B0A10"/>
<path d="M141.634 60.9219L86.228 37.5605L46.1483 132.617L101.554 155.978L141.634 60.9219Z" fill="#7A0C0C"/>
<path d="M80.1117 154.367L64.4511 147.764C63.5645 147.39 63.1447 146.359 63.5185 145.472L63.5949 145.292C63.9688 144.405 65.0002 143.985 65.8868 144.359L81.5474 150.962C82.434 151.336 82.8539 152.367 82.48 153.254L82.4036 153.434C82.0297 154.322 80.9983 154.741 80.1117 154.367Z" stroke="#FAF3EA" stroke-width="0.2925" stroke-miterlimit="10"/>
<path d="M83.5561 68.4482L91.3036 71.6866L83.3956 88.8211L74.7329 98.4796L106.739 111.857" stroke="#FAF3EA" stroke-width="1.3984" stroke-miterlimit="10" stroke-linecap="round" stroke-linejoin="round"/>
<path d="M88.8278 77.9639L118.802 90.4921L108.549 102.171L84.4175 92.0839L88.8278 77.9639Z" stroke="#FAF3EA" stroke-width="1.3984" stroke-miterlimit="10" stroke-linecap="round" stroke-linejoin="round"/>
<path d="M83.1273 106.24C82.35 108.099 80.2134 108.976 78.3544 108.199C76.4954 107.421 75.6183 105.285 76.3956 103.426C77.1729 101.567 79.3095 100.69 81.1685 101.467C83.0275 102.244 83.9045 104.381 83.1273 106.24Z" stroke="#FAF3EA" stroke-width="1.3984" stroke-miterlimit="10" stroke-linecap="round" stroke-linejoin="round"/>
<path d="M101.924 114.097C101.146 115.956 99.0098 116.833 97.1508 116.056C95.2918 115.279 94.4147 113.142 95.192 111.283C95.9684 109.424 98.1059 108.547 99.964 109.324C101.823 110.102 102.7 112.238 101.924 114.097Z" stroke="#FAF3EA" stroke-width="1.3984" stroke-miterlimit="10" stroke-linecap="round" stroke-linejoin="round"/>
<path d="M95.5448 138.01L61.9412 124.944C59.8584 124.134 58.8269 121.789 59.6363 119.707L60.3971 117.75C61.2073 115.667 63.5521 114.636 65.6341 115.445L99.2377 128.511C101.321 129.321 102.352 131.665 101.543 133.748L100.782 135.705C99.9725 137.788 97.6277 138.819 95.5448 138.01Z" fill="#FFD387"/>
<path d="M54.9285 136.318C53.7123 139.893 52.2064 142.968 50.3014 145.146C50.3014 145.237 51.508 145.817 53.3315 146.643C53.341 146.652 53.3584 146.652 53.3766 146.661C58.9111 149.165 69.9793 153.847 69.9793 153.847L56.1803 169.397C53.6759 168.354 51.2452 167.175 48.8856 165.877C48.1144 165.441 47.3615 165.015 46.6085 164.571C42.7707 162.302 39.1603 159.735 35.7762 156.868C31.7121 153.457 27.9923 149.628 24.6985 145.464C24.0453 144.638 23.4103 143.804 22.7935 142.96C19.3279 138.242 16.3698 133.125 14.0024 127.69C18.9376 122.837 23.8275 117.738 25.8236 114.762C30.4777 107.849 42.8254 87.2908 52.3608 78.5353C61.1154 70.5059 69.0086 57.5778 73.6809 57.2603C74.1077 57.2334 74.4972 57.3054 74.8693 57.4963C75.8669 58.0133 76.0942 59.8003 75.795 62.3316C74.7514 71.068 67.4298 88.7144 63.8558 94.4215C60.1638 100.292 59.7283 122.229 54.9285 136.318Z" fill="white"/>
<path d="M165.764 145.221C173.316 135.115 171.246 120.8 161.14 113.248C151.034 105.695 136.718 107.765 129.166 117.871C122.063 127.376 123.474 140.603 132.074 148.427L122.69 154.866L136.617 151.651C146.422 156.957 158.892 154.417 165.764 145.221Z" fill="#FFD387"/>
<path d="M166.093 134.047L140.375 114.827L129.472 129.416L155.191 148.636L166.093 134.047Z" fill="#FAF3EA"/>
<path d="M140.378 114.842L147.114 132.76L166.098 134.063" stroke="#0B0A10" stroke-width="0.3046" stroke-miterlimit="10" stroke-linecap="round" stroke-linejoin="round"/>
<path d="M129.475 129.431L145.922 129.848" stroke="#0B0A10" stroke-width="0.3046" stroke-miterlimit="10" stroke-linecap="round" stroke-linejoin="round"/>
<path d="M151.027 133.158L155.195 148.651" stroke="#0B0A10" stroke-width="0.3046" stroke-miterlimit="10" stroke-linecap="round" stroke-linejoin="round"/>
<path d="M32.8749 103.39H15.9269C15.4255 103.39 15.0195 102.984 15.0195 102.482V85.5343C15.0195 85.0329 15.4255 84.627 15.9269 84.627H32.8749C33.3763 84.627 33.7823 85.0329 33.7823 85.5343V102.482C33.7823 102.983 33.3755 103.39 32.8749 103.39Z" fill="#0B0A10"/>
<path d="M34.1488 103.39H17.2008C16.6994 103.39 16.2935 102.984 16.2935 102.482V85.5343C16.2935 85.0329 16.6994 84.627 17.2008 84.627H34.1488C34.6502 84.627 35.0562 85.0329 35.0562 85.5343V102.482C35.0562 102.983 34.6502 103.39 34.1488 103.39Z" fill="#7A0C0C"/>
<path d="M22.8169 89.7998V97.9845L30.6928 93.5066L22.8169 89.7998Z" fill="white"/>
<path d="M60.0512 82.0782H43.1032C42.6018 82.0782 42.1958 81.6722 42.1958 81.1708V64.2228C42.1958 63.7214 42.6018 63.3154 43.1032 63.3154H60.0512C60.5526 63.3154 60.9586 63.7214 60.9586 64.2228V81.1708C60.9586 81.6722 60.5517 82.0782 60.0512 82.0782Z" fill="#0B0A10"/>
<path d="M61.3251 82.0782H44.3771C43.8757 82.0782 43.4697 81.6722 43.4697 81.1708V64.2228C43.4697 63.7214 43.8757 63.3154 44.3771 63.3154H61.3251C61.8265 63.3154 62.2325 63.7214 62.2325 64.2228V81.1708C62.2325 81.6722 61.8265 82.0782 61.3251 82.0782Z" fill="#FFD387"/>
<path d="M48.6821 69.8781L51.7704 76.8275L59.183 65.709" stroke="white" stroke-width="1.0459" stroke-miterlimit="10" stroke-linecap="round" stroke-linejoin="round"/>
<path d="M10.5174 22.0518H72.643C75.445 22.0518 77.7161 24.3228 77.7161 27.1248V49.6178C77.7161 52.4197 75.445 54.6908 72.643 54.6908H59.8199L63.9873 64.2756L50.1431 54.6908H10.5174C7.7154 54.6908 5.44434 52.4197 5.44434 49.6178V27.1239C5.4452 24.3228 7.71627 22.0518 10.5174 22.0518Z" fill="#FAF3EA"/>
<path d="M15.3276 25.7129V51.8111" stroke="#7A0C0C" stroke-width="0.7844" stroke-miterlimit="10" stroke-linecap="round" stroke-linejoin="round"/>
<path d="M25.9829 25.7129V51.8111" stroke="#7A0C0C" stroke-width="0.7844" stroke-miterlimit="10" stroke-linecap="round" stroke-linejoin="round"/>
<path d="M25.9829 25.7129V51.8111" stroke="#7A0C0C" stroke-width="0.7844" stroke-miterlimit="10" stroke-linecap="round" stroke-linejoin="round"/>
<path d="M36.6387 25.7129V51.8111" stroke="#7A0C0C" stroke-width="0.7844" stroke-miterlimit="10" stroke-linecap="round" stroke-linejoin="round"/>
<path d="M36.6387 25.7129V51.8111" stroke="#7A0C0C" stroke-width="0.7844" stroke-miterlimit="10" stroke-linecap="round" stroke-linejoin="round"/>
<path d="M47.2939 25.7129V51.8111" stroke="#7A0C0C" stroke-width="0.7844" stroke-miterlimit="10" stroke-linecap="round" stroke-linejoin="round"/>
<path d="M47.2939 25.7129V51.8111" stroke="#7A0C0C" stroke-width="0.7844" stroke-miterlimit="10" stroke-linecap="round" stroke-linejoin="round"/>
<path d="M57.9497 25.7129V51.8111" stroke="#7A0C0C" stroke-width="0.7844" stroke-miterlimit="10" stroke-linecap="round" stroke-linejoin="round"/>
<path d="M57.9497 25.7129V51.8111" stroke="#7A0C0C" stroke-width="0.7844" stroke-miterlimit="10" stroke-linecap="round" stroke-linejoin="round"/>
<path d="M68.603 25.7129V51.8111" stroke="#7A0C0C" stroke-width="0.7844" stroke-miterlimit="10" stroke-linecap="round" stroke-linejoin="round"/>
<path d="M11.4878 42.1382C13.5481 45.6402 17.2149 48.0189 21.1394 49.0703C25.0639 50.1216 29.233 49.9438 33.2243 49.183C37.5374 48.3607 41.7508 46.8495 45.4229 44.4422C49.4393 41.8086 52.7218 38.1703 56.7504 35.5566C62.2876 31.9635 69.158 30.4801 75.685 31.4682" stroke="#FFD387" stroke-width="0.7844" stroke-miterlimit="10" stroke-linecap="round" stroke-linejoin="round"/>
<path d="M22.1203 75.7473L25.3647 76.7449L22.1203 77.7434L21.1227 80.9878L20.1243 77.7434L16.8799 76.7449L20.1243 75.7473L21.1227 72.5029L22.1203 75.7473Z" fill="#FAF3EA"/>
<path d="M22.1203 115.281L25.3647 116.278L22.1203 117.277L21.1227 120.521L20.1243 117.277L16.8799 116.278L20.1243 115.281L21.1227 112.036L22.1203 115.281Z" fill="#FAF3EA"/>
<path d="M34.2385 63.6301L37.4829 64.6277L34.2385 65.6262L33.2409 68.8706L32.2424 65.6262L28.998 64.6277L32.2424 63.6301L33.2409 60.3857L34.2385 63.6301Z" fill="#FAF3EA"/>
<path d="M90.6858 22.3157L93.9293 23.3133L90.6858 24.3118L89.6873 27.5561L88.6897 24.3118L85.4453 23.3133L88.6897 22.3157L89.6873 19.0713L90.6858 22.3157Z" fill="#FAF3EA"/>
<path d="M147.967 77.4573L151.211 78.4549L147.967 79.4534L146.969 82.6977L145.97 79.4534L142.726 78.4549L145.97 77.4573L146.969 74.2129L147.967 77.4573Z" fill="#FAF3EA"/>
<path d="M147.967 104.327L151.211 105.325L147.967 106.323L146.969 109.568L145.97 106.323L142.726 105.325L145.97 104.327L146.969 101.083L147.967 104.327Z" fill="#FAF3EA"/>
<path d="M116.938 150.347L120.183 151.345L116.938 152.343L115.941 155.587L114.942 152.343L111.698 151.345L114.942 150.347L115.941 147.103L116.938 150.347Z" fill="#FAF3EA"/>
<path d="M80.4949 166.406L83.7384 167.405L80.4949 168.403L79.4964 171.647L78.4988 168.403L75.2544 167.405L78.4988 166.406L79.4964 163.162L80.4949 166.406Z" fill="#FAF3EA"/>
<path d="M162.105 89.3861L166.498 90.7376L162.105 92.0892L160.754 96.4821L159.403 92.0892L155.009 90.7376L159.403 89.3861L160.754 84.9932L162.105 89.3861Z" fill="#FAF3EA"/>
</svg>
