<svg width="165" height="158" viewBox="0 0 165 158" fill="none" xmlns="http://www.w3.org/2000/svg">
<path d="M136.93 157.733C136.492 157.733 136.044 157.717 135.541 157.682C135.015 157.717 134.55 157.733 134.096 157.733C127.452 157.733 121.014 154.796 115.986 149.568L108.224 153.553C107.202 154.205 106.108 154.222 104.405 154.246C103.488 154.26 102.197 154.271 100.595 154.282C97.3109 155.065 93.918 155.635 90.5033 155.978C90.036 156.025 89.5666 156.071 89.0965 156.104C87.0136 156.286 84.879 156.379 82.7525 156.379C82.2023 156.379 81.6608 156.366 81.1215 156.352L80.6536 156.34C78.6289 156.287 76.613 156.154 74.6458 155.946C73.6698 155.844 72.664 155.719 71.5767 155.562C69.3083 155.23 67.0784 154.803 64.9343 154.292L50.4494 154.271C47.2137 154.266 44.0814 154.258 41.1346 154.249C38.3953 157.19 30.1961 157.344 28.5383 157.344C22.3675 157.344 18.1078 155.756 15.8779 152.625C15.6654 152.332 15.4667 152.01 15.2884 151.668C15.0722 151.255 14.9238 150.807 14.8488 150.347C14.8488 150.347 14.7098 149.488 14.5228 148.171C14.5155 148.121 14.509 148.07 14.5046 148.02C14.3452 146.886 14.124 145.176 13.9464 143.308C13.9085 142.898 13.8721 142.498 13.8408 142.1C13.811 141.73 13.7841 141.352 13.7608 140.974L5.00201 96.1646C4.94816 95.8881 4.92124 95.6079 4.92124 95.327C4.92124 94.8044 5.05004 92.7579 6.97064 91.6473C6.65042 89.6889 6.40879 87.6125 6.23922 85.347C6.10822 83.5807 6.0391 81.7831 6.03109 79.9942C2.53122 79.0081 0 75.2971 0 70.7434V47.9451C0 42.6134 3.4715 38.4375 7.90292 38.4375H18.043C19.1951 36.6282 20.3981 34.9012 21.636 33.2826C22.8864 31.632 24.1935 30.0433 25.5093 28.5769C30.2493 23.2597 35.7243 18.618 41.7729 14.792C47.5332 11.1452 53.715 8.29811 60.1601 6.3222C63.334 3.83684 67.173 2.00066 71.3206 0.991963C73.1509 0.547292 74.9165 0.257638 76.5693 0.13246C77.4594 0.064777 78.3502 0.0240289 79.222 0.00801779C79.4957 0.00292336 79.7722 0 80.0502 0C87.1781 0 94.1363 1.711 99.7329 4.82733C103.943 5.77635 108.106 7.09946 112.114 8.76607C113.951 9.52004 115.801 10.373 117.598 11.2951C117.635 11.3133 117.673 11.3322 117.709 11.3511C118.206 11.6008 118.695 11.8577 119.178 12.1226C131.35 18.6958 141.51 28.4342 148.621 40.3341C157.502 44.1876 163.36 53.0141 163.36 62.7961C163.36 67.6104 161.986 72.2077 159.373 76.1901C159.427 77.3706 159.454 78.5328 159.454 79.6587C159.454 86.3841 158.584 93.0512 156.867 99.4942C160.049 104.017 162.267 109.593 163.264 115.578C163.48 115.835 163.669 116.119 163.824 116.427C164.464 117.7 164.436 119.182 163.795 120.41C163.844 121.271 163.87 122.112 163.87 122.951C163.868 142.129 151.783 157.733 136.93 157.733Z" fill="#1481EA"/>
<path d="M155.644 79.6562C155.644 86.4609 154.705 93.0473 152.951 99.2916C151.751 103.564 150.164 107.683 148.228 111.591C144.968 118.228 140.703 124.291 135.645 129.582C135.492 129.749 135.339 129.909 135.179 130.069C133.571 131.729 131.875 133.315 130.114 134.814C127.865 136.736 125.5 138.504 123.025 140.127C121.686 141.008 120.311 141.852 118.913 142.645C118.12 143.096 117.319 143.533 116.512 143.948C115.769 144.334 115.027 144.705 114.263 145.061C111.694 146.284 109.037 147.354 106.308 148.271C104.562 148.86 102.779 149.377 100.974 149.828C100.857 149.857 100.748 149.887 100.632 149.916C97.3784 150.716 94.0379 151.291 90.6247 151.633C90.188 151.677 89.7514 151.721 89.3147 151.75C87.3351 151.924 85.3338 152.012 83.3105 152.012C82.6337 152.012 81.9714 151.99 81.3092 151.975C79.4097 151.924 77.5247 151.801 75.6616 151.604C74.6864 151.502 73.7185 151.379 72.7578 151.24C70.4726 150.905 68.2165 150.469 66.004 149.923C65.8803 149.894 65.7493 149.865 65.6256 149.828C62.9328 149.159 60.2983 148.329 57.7365 147.361C57.6637 147.332 57.591 147.31 57.5255 147.281C55.0583 146.342 52.6493 145.265 50.3205 144.064C49.731 143.766 49.1415 143.453 48.5593 143.133C48.2681 142.973 47.977 142.813 47.6932 142.645C47.2929 142.42 46.8999 142.187 46.4996 141.947C44.9568 141.037 43.4503 140.076 41.9874 139.05C40.8448 138.257 39.724 137.427 38.6324 136.561C37.9701 136.044 37.3224 135.52 36.682 134.974C32.9994 131.881 29.6298 128.41 26.6532 124.64C21.2531 117.857 17.0466 110.085 14.3611 101.635C13.7498 99.721 13.2112 97.7706 12.7673 95.791C12.7236 95.6163 12.6872 95.4344 12.6508 95.2598C12.3379 93.877 12.0759 92.4796 11.8575 91.0605C11.53 89.0736 11.3044 87.065 11.1516 85.02C11.0206 83.2514 10.9551 81.4611 10.9551 79.6562C10.9551 75.7845 11.2535 71.9782 11.8503 68.2738C12.2869 65.5083 12.8691 62.801 13.6115 60.1591C15.2126 54.417 17.4978 48.9732 20.3871 43.9079C21.9736 41.1278 23.7276 38.4641 25.6634 35.9315C26.8206 34.4031 28.036 32.9185 29.3169 31.492C33.7927 26.4704 38.9599 22.0892 44.6656 18.4794C50.2404 14.9497 56.3246 12.155 62.7945 10.2555C64.0027 9.89166 65.218 9.56416 66.4553 9.27305C67.1903 9.09838 67.9326 8.931 68.675 8.78545H68.6822C69.33 8.64717 69.9777 8.52344 70.6327 8.40699C71.4696 8.26144 72.3066 8.12318 73.1508 8.01401C73.5947 7.94851 74.046 7.89027 74.4899 7.83933H74.4972C77.3937 7.48272 80.3267 7.30078 83.3105 7.30078C85.3774 7.30078 87.4225 7.38813 89.4457 7.56279C89.453 7.56279 89.453 7.56279 89.453 7.56279C90.1444 7.61374 90.8285 7.68651 91.5053 7.76657C93.9506 8.03585 96.3595 8.43612 98.7175 8.94556C98.7248 8.95284 98.7248 8.95282 98.7321 8.95282C102.975 9.86982 107.072 11.1653 110.995 12.7955C112.785 13.5305 114.532 14.3384 116.242 15.219C116.25 15.219 116.257 15.219 116.257 15.2263C116.723 15.4592 117.181 15.6993 117.632 15.9468C140.266 28.1734 155.644 52.1172 155.644 79.6562Z" fill="white"/>
<path d="M79.8538 4.37112C79.0481 4.38568 78.2468 4.42352 77.4543 4.48319C75.9245 4.59891 74.3983 4.86891 72.9086 5.23207C64.6811 7.23345 56.6646 13.4603 56.7258 22.5786C56.7425 25.1389 57.1632 27.6832 57.6646 30.1882C58.5758 34.7427 60.2249 39.1297 61.0328 43.703C61.2183 44.7525 61.3537 45.8623 60.9796 46.8601C60.2307 48.8557 57.8545 49.5958 55.7986 50.1598C52.1961 51.1474 48.4502 52.5178 46.1526 55.4624C44.3994 57.7105 43.7102 60.6384 43.6673 63.4891C43.6084 67.3972 44.7007 71.3163 46.7727 74.6313C47.9947 76.5868 49.6518 78.4019 51.8351 79.1442C54.3962 80.0147 57.1872 79.2781 59.8174 78.6472C79.2235 73.9901 99.5415 75.3605 119.36 77.7142C122.72 74.0127 125.161 69.4175 126.234 64.5349C127.235 59.979 126.789 55.6407 123.701 51.9567C121.48 49.3055 118.44 47.4554 115.278 46.053C112.418 44.7845 111.544 43.3544 111.636 40.2024C111.837 33.2973 111.597 25.8594 108.582 19.511C103.434 8.67592 91.2573 4.16298 79.8538 4.37112Z" fill="#7A0C0C"/>
<path d="M74.1807 51.244L74.5773 66.4916L95.2439 65.5622L96.5154 40.3936L74.1807 51.244Z" fill="#FFB3DA"/>
<path d="M74.29 53.679L74.3817 59.4779C77.132 59.8105 79.573 59.5725 81.6792 58.9495C88.1862 57.0246 93.5361 52.5997 94.4582 45.541C88.668 49.8378 81.6508 52.6565 74.29 53.679Z" fill="#0B0A10"/>
<path d="M68.9642 53.6571C78.6196 58.9684 92.8519 55.6025 95.8511 43.4843C97.1487 38.229 97.8525 34.0967 98.2346 31.107C98.458 29.3647 98.5642 28.0088 98.6239 27.0445C98.843 25.7316 98.9412 24.3838 98.8794 23.0119C98.4121 12.631 89.5718 4.59703 79.1355 5.06644C74.8453 5.2593 70.9597 6.85679 67.895 9.39454C65.2612 11.5757 63.2373 14.4569 62.1078 17.6875C60.8131 21.3897 61.1165 25.1953 61.2519 29.0328C61.3531 31.9046 61.471 34.7612 61.8319 37.6177C62.4658 42.635 63.5138 49.0197 67.4838 52.5946C67.9372 53.0014 68.43 53.3631 68.9642 53.6571Z" fill="#FFB3DA"/>
<path d="M79.4922 34.113C79.5337 35.0358 80.2156 35.7541 81.0147 35.7185C81.8146 35.6828 82.4288 34.9055 82.3873 33.9827C82.3458 33.0599 81.6639 32.3416 80.8641 32.3772C80.065 32.4136 79.4507 33.1909 79.4922 34.113Z" fill="#0B0A10"/>
<path d="M64.8116 34.7741C64.853 35.6969 65.535 36.4153 66.3341 36.3796C67.1339 36.3439 67.7481 35.5667 67.7066 34.6439C67.6652 33.721 66.9832 33.0027 66.1841 33.0384C65.3851 33.074 64.7701 33.8513 64.8116 34.7741Z" fill="#0B0A10"/>
<path d="M70.519 32.0322C70.5321 35.5678 70.5685 39.1026 70.6275 42.6374C71.5903 42.3965 72.5117 42.018 73.3457 41.5217" stroke="#0B0A10" stroke-width="0.4932" stroke-miterlimit="10" stroke-linecap="round" stroke-linejoin="round"/>
<path d="M72.3237 44.5394C73.3477 46.2213 75.713 45.519 75.5995 43.5264" stroke="#0B0A10" stroke-width="0.4487" stroke-miterlimit="10" stroke-linecap="round" stroke-linejoin="round"/>
<path d="M63.4995 29.1183C63.3583 29.3949 63.2404 29.7209 63.3583 30.0084C63.4377 30.2027 63.6131 30.3425 63.7979 30.4436C64.3867 30.7653 65.105 30.7704 65.7571 30.6117C66.22 30.4989 66.6755 30.2995 67.003 29.9538C67.3305 29.6081 67.5088 29.0972 67.372 28.6409C67.2105 28.1045 66.6435 27.7596 66.0846 27.7319C65.1588 27.6861 63.918 28.2959 63.4995 29.1183Z" fill="#7A0C0C"/>
<path d="M83.3827 28.1024C83.5814 28.3404 83.7691 28.6322 83.7189 28.9386C83.6847 29.146 83.545 29.3207 83.387 29.4604C82.8849 29.9051 82.1855 30.0703 81.5145 30.0601C81.0385 30.0528 80.5495 29.9604 80.1535 29.6962C79.7569 29.432 79.4694 28.9736 79.5015 28.4983C79.5393 27.9394 80.0153 27.4765 80.5545 27.3251C81.4453 27.0762 82.791 27.3943 83.3827 28.1024Z" fill="#7A0C0C"/>
<path d="M101.574 29.8404C103.01 29.9991 104.291 30.9685 104.987 32.2341C105.683 33.4997 105.826 35.0244 105.553 36.4421C104.932 39.6516 102.069 42.2941 98.8206 42.6551C98.0011 42.7461 97.1358 42.6966 96.4116 42.3014C95.4415 41.7723 94.8702 40.6836 94.729 39.5883C94.5871 38.4922 94.8207 37.3824 95.1329 36.3227C96.0194 33.3105 97.6772 29.4096 101.574 29.8404Z" fill="#FFB3DA"/>
<path d="M102.063 34.2666C101.272 34.514 100.592 35.0424 100.042 35.6632C99.4916 36.2833 99.0593 36.9972 98.6299 37.7061" stroke="#0B0A10" stroke-width="0.5454" stroke-miterlimit="10" stroke-linecap="round" stroke-linejoin="round"/>
<path d="M74.4437 60.3848C74.4437 60.3848 74.4364 60.3848 74.4291 60.3921C74.4219 60.3848 74.4219 60.3848 74.4219 60.3848H74.4437Z" fill="#1481EA"/>
<path d="M135.643 129.581C135.49 129.749 135.337 129.909 135.177 130.069C133.569 131.728 131.873 133.315 130.112 134.814C127.863 136.735 125.498 138.504 123.023 140.127C121.684 141.008 120.309 141.852 118.912 142.645C118.118 143.096 117.318 143.533 116.51 143.948C115.768 144.333 115.025 144.705 114.261 145.061C111.692 146.284 109.036 147.354 106.306 148.271C104.56 148.86 102.777 149.377 100.972 149.828C100.855 149.857 100.746 149.886 100.63 149.916C97.3766 150.716 94.0361 151.291 90.6229 151.633C90.1862 151.677 89.7496 151.72 89.3129 151.75L72.756 151.24C70.4708 150.905 68.2147 150.469 66.0022 149.923C65.8785 149.894 65.7475 149.865 65.6238 149.828C62.931 149.159 60.2965 148.329 57.7347 147.361C57.6619 147.332 57.5892 147.31 57.5237 147.281C55.0565 146.342 52.6475 145.265 50.3187 144.064C49.7292 143.766 49.1397 143.453 48.5575 143.133C48.2663 142.973 47.9752 142.812 47.6914 142.645C47.2911 142.419 46.8981 142.187 46.4978 141.946C44.955 141.037 43.4485 140.076 41.9856 139.05C41.1269 124.327 40.501 99.1823 45.3261 88.6586C46.8545 85.3182 49.096 82.0941 51.6796 79.0884C60.6895 68.5793 73.753 60.7921 74.4153 60.3991C74.4226 60.3991 74.4226 60.3991 74.4299 60.3918C74.4954 60.552 76.9552 65.9957 83.9346 65.69C91.0232 65.3698 95.6445 57.4443 95.6445 57.4443L95.6518 57.4516L99.0287 60.2172C99.0287 60.2172 108.184 66.7599 116.779 74.4889C117.631 75.253 118.555 76.2719 119.53 77.5091C125.913 85.6384 134.253 103.382 135.57 122.333C135.752 124.931 135.76 127.347 135.643 129.581Z" fill="#1481EA"/>
<path d="M99.1959 17.646C98.562 15.4452 97.5948 13.3128 96.1319 11.5501C95.0854 10.2889 93.8038 9.23799 92.4341 8.33773C87.1199 4.8444 80.4877 3.75275 74.2965 5.2083C74.2972 5.22795 74.2987 5.2476 74.2987 5.26725C69.7923 7.0845 65.3012 9.1543 62.5793 13.1767C61.5983 14.6257 60.901 16.2472 60.2955 17.8891C58.9586 21.5141 58.658 25.4783 59.356 29.2788C65.4569 22.1371 70.5084 14.1025 74.3096 5.51324C74.4944 11.235 76.6072 16.8796 80.2366 21.3074C83.9308 25.8138 89.1679 29.0313 94.8569 30.2904C95.1363 31.5545 95.6472 32.6294 95.926 33.8936C98.1384 31.4759 99.5357 28.3159 99.912 25.0606C100.2 22.5781 99.888 20.0476 99.1959 17.646Z" fill="#7A0C0C"/>
<path d="M120.462 142.647L106.467 149.831C106.43 149.867 104.262 149.896 100.63 149.918C95.0189 149.94 85.9216 149.947 75.8347 149.933C72.6325 149.933 69.3284 149.932 66.0024 149.925C60.959 149.918 55.8718 149.911 51.0103 149.903C46.1414 149.896 41.5055 149.882 37.3863 149.867C27.4449 149.852 20.4946 149.831 20.4946 149.831L30.6544 142.647H120.462Z" fill="black"/>
<path opacity="0.33" d="M120.462 142.647L106.467 149.831C106.43 149.867 104.262 149.896 100.63 149.918C95.0189 149.94 85.9216 149.947 75.8347 149.933C72.6325 149.933 69.3284 149.932 66.0024 149.925C60.959 149.918 55.8718 149.911 51.0103 149.903C46.1414 149.896 41.5055 149.882 37.3863 149.867C27.4449 149.852 20.4946 149.831 20.4946 149.831L30.6544 142.647H120.462Z" fill="#0B0A10"/>
<path d="M9.84229 95.3247L20.4955 149.831H106.466L100.768 95.0772C100.768 95.0772 9.84229 95.0765 9.84229 95.3247Z" fill="#0B0A10"/>
<path d="M56.6981 128.833C60.3413 128.833 63.2947 125.879 63.2947 122.236C63.2947 118.593 60.3413 115.64 56.6981 115.64C53.0549 115.64 50.1016 118.593 50.1016 122.236C50.1016 125.879 53.0549 128.833 56.6981 128.833Z" fill="#1481EA"/>
<path d="M39.2303 147.497C39.2303 147.526 39.2303 147.555 39.2245 147.578C39.1837 148.055 39.1372 148.502 39.0848 148.915C39.0265 149.345 38.9625 149.734 38.8926 150.071C38.7762 150.658 38.6371 151.088 38.4858 151.28C37.4749 152.582 23.3473 154.86 19.977 150.071C19.878 149.938 19.7914 149.793 19.7157 149.647C19.7157 149.647 19.5818 148.822 19.402 147.555C19.402 147.537 19.3962 147.514 19.3962 147.497C19.2216 146.259 19.0127 144.614 18.8497 142.894C18.8147 142.516 18.7798 142.139 18.7507 141.761C18.4545 138.06 18.4545 134.352 19.5702 133.921C20.9413 133.386 22.557 137.984 23.6319 141.761C24.0562 143.237 24.3931 144.597 24.602 145.462C24.7534 146.084 24.8349 146.457 24.8349 146.457C24.8349 146.457 24.8058 146.108 24.7709 145.526C24.7185 144.666 24.6427 143.289 24.6078 141.761C24.5147 137.978 24.666 133.253 25.9447 133.032C27.3108 132.794 28.4381 137.948 29.0771 141.761C29.449 143.963 29.6586 145.719 29.6586 145.719C29.6586 145.719 29.6877 143.975 29.8158 141.761C30.0363 137.92 30.5596 132.66 31.7335 132.66C32.8666 132.66 33.8899 137.774 34.5114 141.761C34.9066 144.3 35.1446 146.381 35.1446 146.381C35.1446 146.381 35.6154 144.062 36.2602 141.761C36.9225 139.407 37.7711 137.071 38.4858 137.257C39.0323 137.402 39.3111 139.355 39.3868 141.761C39.445 143.609 39.3809 145.719 39.2303 147.497Z" fill="#FFB3DA"/>
<path d="M134.651 153.367C147.754 153.367 158.375 139.749 158.375 122.95C158.375 106.151 147.754 92.5332 134.651 92.5332C121.549 92.5332 110.927 106.151 110.927 122.95C110.927 139.749 121.549 153.367 134.651 153.367Z" fill="black"/>
<path d="M137.487 153.367C149.952 153.367 160.057 139.749 160.057 122.95C160.057 106.151 149.952 92.5332 137.487 92.5332C125.021 92.5332 114.916 106.151 114.916 122.95C114.916 139.749 125.021 153.367 137.487 153.367Z" fill="#7A0C0C"/>
<path d="M137.486 147.503C147.549 147.503 155.706 136.511 155.706 122.95C155.706 109.39 147.549 98.3975 137.486 98.3975C127.424 98.3975 119.267 109.39 119.267 122.95C119.267 136.511 127.424 147.503 137.486 147.503Z" fill="#1481EA"/>
<path d="M137.486 140.174C144.545 140.174 150.267 132.463 150.267 122.95C150.267 113.437 144.545 105.726 137.486 105.726C130.427 105.726 124.705 113.437 124.705 122.95C124.705 132.463 130.427 140.174 137.486 140.174Z" fill="#7A0C0C"/>
<path d="M144.067 122.95C144.067 127.848 141.121 131.818 137.486 131.818C133.852 131.818 130.906 127.848 130.906 122.95C130.906 118.052 133.852 114.081 137.486 114.081C141.121 114.081 144.067 118.052 144.067 122.95Z" fill="#1481EA"/>
<path d="M151.599 122.324L153.468 118.865L160.478 118.388L157.02 122.444L159.356 126.857L153.374 126.38L151.599 122.324Z" fill="white"/>
<path d="M138.328 122.504H158.375" stroke="#0B0A10" stroke-width="0.8523" stroke-miterlimit="10" stroke-linecap="round" stroke-linejoin="round"/>
<path d="M8.46081 42.8018H51.7722C53.7256 42.8018 55.3085 45.1037 55.3085 47.9435V70.7418C55.3085 73.5816 53.7248 75.8835 51.7722 75.8835H42.8315L45.7368 85.5979L36.085 75.8835H8.4601C6.50675 75.8835 4.92383 73.5816 4.92383 70.7418V47.9435C4.92383 45.1037 6.50746 42.8018 8.46081 42.8018Z" fill="black"/>
<path d="M30.2172 70.5907C36.686 70.5907 41.93 65.3467 41.93 58.8779C41.93 52.409 36.686 47.165 30.2172 47.165C23.7484 47.165 18.5044 52.409 18.5044 58.8779C18.5044 65.3467 23.7484 70.5907 30.2172 70.5907Z" stroke="#1481EA" stroke-width="0.6851" stroke-miterlimit="10"/>
<path d="M30.2173 47.165V70.59" stroke="#1481EA" stroke-width="0.6851" stroke-miterlimit="10"/>
<path d="M41.9308 58.877H18.5059" stroke="#1481EA" stroke-width="0.6851" stroke-miterlimit="10"/>
<path d="M29.5821 47.1064C28.0407 47.931 26.8355 49.3036 26.027 50.853C25.2184 52.4025 24.7861 54.1251 24.5532 55.8572C24.2512 58.1024 24.2737 60.3913 24.6194 62.6299C25.0517 65.426 26.0379 68.2229 27.9672 70.2927" stroke="#1481EA" stroke-width="0.6851" stroke-miterlimit="10"/>
<path d="M31.9087 47.377C32.8664 48.1411 33.5804 49.1753 34.1226 50.2735C35.7724 53.6132 35.8962 57.493 35.664 61.2112C35.4595 64.4818 34.9202 67.9344 32.8002 70.4336" stroke="#1481EA" stroke-width="0.6851" stroke-miterlimit="10"/>
<path d="M18.4731 58.2255C18.7308 57.7161 19.1798 57.3333 19.6325 56.9861C24.1381 53.5292 30.2813 52.3116 35.7651 53.789C38.0146 54.3945 40.2089 55.476 41.6994 57.2663" stroke="#1481EA" stroke-width="0.6851" stroke-miterlimit="10"/>
<path d="M18.5884 60.9081C19.0862 62.0115 20.2695 62.9285 21.6865 63.5383C23.1035 64.1482 24.7417 64.4728 26.3909 64.646C29.6775 64.991 33.1068 64.7486 36.1751 63.8629C38.5374 63.181 40.7433 62.0653 41.8896 60.4795" stroke="#1481EA" stroke-width="0.5705" stroke-miterlimit="10"/>
<path d="M139.435 82.9096C150.545 82.9096 159.551 73.9032 159.551 62.7932C159.551 51.6832 150.545 42.6768 139.435 42.6768C128.325 42.6768 119.318 51.6832 119.318 62.7932C119.318 73.9032 128.325 82.9096 139.435 82.9096Z" fill="#D2AE26"/>
<path d="M142.507 73.372L153.354 73.527L153.666 57.9628L142.615 57.2627L142.507 73.372Z" fill="white"/>
<path d="M136.156 57.3402C136.156 57.3402 134.988 49.4803 136.778 49.3245C138.568 49.1688 142.537 57.1066 142.537 57.1066L146.428 57.5739L145.727 73.4496C145.727 73.4496 127.673 74.0718 127.128 72.2043C126.583 70.3369 126.973 68.7023 126.973 68.7023C126.973 68.7023 125.65 66.4454 125.961 65.1224C126.273 63.7993 126.895 62.6319 126.895 62.6319C126.895 62.6319 126.039 60.2193 126.273 58.7405C126.506 57.2616 129.074 57.1066 130.475 57.1838C131.876 57.2624 136.156 57.3402 136.156 57.3402Z" fill="#1481EA"/>
<path d="M37.8418 33.1389L40.563 33.9758L37.8418 34.8135L37.0041 37.5354L36.1672 34.8135L33.4453 33.9758L36.1672 33.1389L37.0041 30.417L37.8418 33.1389Z" fill="#1481EA"/>
<path d="M51.9639 33.1389L54.6858 33.9758L51.9639 34.8135L51.1262 37.5354L50.2893 34.8135L47.5674 33.9758L50.2893 33.1389L51.1262 30.417L51.9639 33.1389Z" fill="#1481EA"/>
<path d="M51.9639 20.3146L54.6858 21.1516L51.9639 21.9893L51.1262 24.7112L50.2893 21.9893L47.5674 21.1516L50.2893 20.3146L51.1262 17.5928L51.9639 20.3146Z" fill="#1481EA"/>
<path d="M130.006 34.9963L132.728 35.834L130.006 36.6709L129.168 39.3928L128.331 36.6709L125.609 35.834L128.331 34.9963L129.168 32.2744L130.006 34.9963Z" fill="#1481EA"/>
<path d="M127.405 84.7951L130.127 85.6321L127.405 86.4697L126.568 89.1916L125.731 86.4697L123.009 85.6321L125.731 84.7951L126.568 82.0732L127.405 84.7951Z" fill="#1481EA"/>
<path d="M148.589 86.8361L151.311 87.6731L148.589 88.5108L147.751 91.2326L146.914 88.5108L144.192 87.6731L146.914 86.8361L147.751 84.1143L148.589 86.8361Z" fill="#1481EA"/>
<path d="M52.5234 82.1936L55.2453 83.0312L52.5234 83.8682L51.6858 86.5901L50.8488 83.8682L48.127 83.0312L50.8488 82.1936L51.6858 79.4717L52.5234 82.1936Z" fill="#1481EA"/>
<path d="M24.2798 82.1926L27.0017 83.0303L24.2798 83.8672L23.4429 86.5891L22.6052 83.8672L19.8833 83.0303L22.6052 82.1926L23.4429 79.4707L24.2798 82.1926Z" fill="#1481EA"/>
</svg>
