<svg width="138" height="41" viewBox="0 0 138 41" fill="none" xmlns="http://www.w3.org/2000/svg">
<path d="M136.451 34.5279H0.822475C0.368637 34.5279 0.000305176 34.1596 0.000305176 33.7057V31.8202C0.000305176 31.3664 0.368637 30.998 0.822475 30.998H136.451C136.905 30.998 137.273 31.3664 137.273 31.8202V33.7057C137.273 34.1596 136.905 34.5279 136.451 34.5279Z" fill="#1481EA"/>
<path d="M60.599 34.5293C61.408 38.228 64.6945 41.0003 68.6354 41.0003C72.5775 41.0003 75.8618 38.228 76.6719 34.5293H60.599Z" fill="#52998B"/>
<path d="M74.3117 24.6622C74.3117 24.6622 100.797 12.3055 131.587 15.4966V13.9005C131.587 13.9005 101.898 8.88528 68.6365 24.7236L74.3117 24.6622Z" fill="#D8C3A4"/>
<path d="M75.6854 25.0924C75.6854 25.0924 103.146 16.6734 132.493 24.2527L132.726 22.6741C132.726 22.6741 104.714 13.4483 70.1802 24.3371L75.6854 25.0924Z" fill="#D8C3A4"/>
<path d="M62.8449 24.8771C62.8449 24.8771 36.36 12.5204 5.56921 15.7115V14.1154C5.56921 14.1154 35.2583 9.10018 68.5201 24.9374L62.8449 24.8771Z" fill="#D8C3A4"/>
<path d="M61.4733 25.3073C61.4733 25.3073 34.0128 16.8882 4.6657 24.4675L4.43219 22.889C4.43219 22.889 32.4463 13.6631 66.9785 24.552L61.4733 25.3073Z" fill="#D8C3A4"/>
<path d="M80.7426 14.249C81.863 12.9358 82.5426 11.2344 82.5426 9.37302C82.5426 5.21832 79.1739 1.84961 75.0192 1.84961C72.2436 1.84961 69.8253 3.3569 68.5219 5.5932C67.2174 3.3569 64.8002 1.84961 62.0245 1.84961C57.8698 1.84961 54.5012 5.21832 54.5012 9.37302C54.5012 11.9152 55.7662 14.1592 57.6966 15.5207L68.523 24.2488C68.523 24.2488 80.155 14.9386 80.7426 14.249Z" stroke="#D8C3A4" stroke-width="2" stroke-miterlimit="10" stroke-linecap="round" stroke-linejoin="round"/>
<path d="M68.6367 24.7246H4.97222C4.60937 24.7246 4.31451 25.0184 4.31451 25.3824V30.3428C4.31451 30.7056 4.60828 31.0005 4.97222 31.0005H68.6367H132.301C132.664 31.0005 132.959 30.7067 132.959 30.3428V25.3824C132.959 25.0195 132.664 24.7246 132.301 24.7246H68.6367Z" fill="#C9B293"/>
<path opacity="0.2" d="M73.0033 24.7246H64.5086V34.5293H73.0033V24.7246Z" fill="#3D3934"/>
</svg>
