<svg width="124" height="97" viewBox="0 0 124 97" fill="none" xmlns="http://www.w3.org/2000/svg">
<path d="M0.799192 76.1719H122.851C123.195 76.1719 123.475 76.4512 123.475 76.7954V87.2824C123.475 87.6267 123.195 87.906 122.851 87.906H0.799192C0.454968 87.906 0.175659 87.6267 0.175659 87.2824V76.7954C0.175659 76.4512 0.453984 76.1719 0.799192 76.1719Z" fill="white"/>
<path d="M0.175659 83.3281H123.476V87.2788C123.476 87.6231 123.196 87.9024 122.852 87.9024H0.800174C0.45595 87.9024 0.176642 87.6231 0.176642 87.2788L0.175659 83.3281Z" fill="#F2BF4C"/>
<path d="M116.806 58.482C116.806 68.5038 108.682 76.6275 98.6605 76.6275C88.6387 76.6275 80.515 68.5038 80.515 58.482C80.515 51.6044 83.915 43.9017 89.9831 43.9223C94.4069 43.9371 95.5173 46.4047 98.6605 46.4047C101.723 46.4047 103.998 43.642 107.082 43.9223C113.15 44.4741 116.806 51.5228 116.806 58.482Z" fill="#E25744"/>
<path d="M99.9038 46.2492L93.5061 33.8778C93.4314 33.7332 93.2317 33.7096 93.1304 33.8365C92.3446 34.8161 89.8338 38.4422 91.9375 42.5287C91.9394 42.5326 91.9394 42.5316 91.9414 42.5355C91.9807 42.6113 94.2202 46.8875 99.712 46.5866C99.8743 46.5777 99.9795 46.3958 99.9038 46.2492Z" fill="#63AFA1"/>
<path d="M27.5282 0.759766H9.6649C9.00596 0.759766 8.47192 1.29379 8.47192 1.95273V75.0197C8.47192 75.6786 9.00596 76.2127 9.6649 76.2127H27.5282C28.1871 76.2127 28.7211 75.6786 28.7211 75.0197V1.95273C28.7211 1.29379 28.1871 0.759766 27.5282 0.759766Z" fill="#63AFA1"/>
<path d="M37.413 8.97403L29.8824 10.7581C29.2411 10.9095 28.8448 11.5528 28.9962 12.194L43.9316 75.247C44.0831 75.8882 44.7263 76.2846 45.3675 76.1331L52.8982 74.3491C53.5394 74.1976 53.9358 73.5544 53.7843 72.9131L38.8489 9.86016C38.6975 9.21794 38.0543 8.82159 37.413 8.97403Z" fill="#E25744"/>
<path d="M50.1461 2.41049L39.1349 6.94341C38.5251 7.1942 38.235 7.89151 38.4858 8.50029L66.0916 75.566C66.3424 76.1747 67.0397 76.4659 67.6485 76.2151L78.6597 71.6821C79.2685 71.4313 79.5596 70.734 79.3088 70.1252L51.702 3.0596C51.4522 2.44984 50.7549 2.1597 50.1461 2.41049Z" fill="#685853"/>
<path d="M28.7211 7.70508H8.47192V15.0685H28.7211V7.70508Z" fill="white"/>
<path d="M28.7211 61.3789H8.47192V68.7423H28.7211V61.3789Z" fill="white"/>
<path d="M35.725 20.5917C37.2503 20.5917 38.4867 19.3552 38.4867 17.83C38.4867 16.3048 37.2503 15.0684 35.725 15.0684C34.1998 15.0684 32.9634 16.3048 32.9634 17.83C32.9634 19.3552 34.1998 20.5917 35.725 20.5917Z" fill="white"/>
<path d="M49.0593 64.1405C49.0593 65.666 47.8231 66.9022 46.2977 66.9022C44.7723 66.9022 43.536 65.666 43.536 64.1405C43.536 62.6151 44.7723 61.3789 46.2977 61.3789C47.8231 61.3789 49.0593 62.6161 49.0593 64.1405Z" fill="white"/>
<path d="M47.199 8.87104L45.7769 9.45622C44.1925 10.1083 43.4371 11.9209 44.0892 13.5053L49.0952 25.6682C49.7473 27.2526 51.5598 28.0079 53.1443 27.3559L54.5654 26.7707C56.1498 26.1186 56.9051 24.3061 56.2531 22.7216L51.2471 10.5597C50.595 8.97432 48.7824 8.21898 47.199 8.87104Z" fill="white"/>
<path d="M64.9346 52.1346L63.5125 52.7198C61.9281 53.3718 61.1727 55.1844 61.8248 56.7688L66.8308 68.9308C67.4828 70.5152 69.2954 71.2705 70.8798 70.6184L72.302 70.0333C73.8864 69.3812 74.6417 67.5686 73.9897 65.9842L68.9837 53.8223C68.3316 52.2388 66.519 51.4825 64.9346 52.1346Z" fill="white"/>
<path d="M28.7211 63.2188H8.47192V66.9H28.7211V63.2188Z" fill="#685853"/>
<path d="M28.7211 9.55078H8.47192V13.232H28.7211V9.55078Z" fill="#685853"/>
<path d="M19.247 96.8866H17.9468C16.4982 96.8866 15.3239 95.7123 15.3239 94.2636V87.9023H21.869V94.2636C21.87 95.7123 20.6957 96.8866 19.247 96.8866Z" fill="#5B4A45"/>
<path d="M103.851 96.8866H102.551C101.102 96.8866 99.9276 95.7123 99.9276 94.2636V87.9023H106.473V94.2636C106.474 95.7123 105.299 96.8866 103.851 96.8866Z" fill="#5B4A45"/>
</svg>
