<svg width="159" height="83" viewBox="0 0 159 83" fill="none" xmlns="http://www.w3.org/2000/svg">
<path d="M137.301 13.4211L135.318 11.4375L76.7836 69.9718L78.7672 71.9553L137.301 13.4211Z" fill="#D8C3A4"/>
<path d="M144.809 19.4913L143.03 17.3223L79.0237 69.8218L80.8028 71.9908L144.809 19.4913Z" fill="#D8C3A4"/>
<path d="M127.9 6.10658L125.604 4.49609L78.0791 72.277L80.376 73.8875L127.9 6.10658Z" fill="#D8C3A4"/>
<path d="M81.8013 71.9699L83.7849 69.9863L25.2507 11.4521L23.2671 13.4356L81.8013 71.9699Z" fill="#D8C3A4"/>
<path d="M79.7136 71.9737L81.4927 69.8047L17.4866 17.3051L15.7075 19.4741L79.7136 71.9737Z" fill="#D8C3A4"/>
<path d="M80.1853 73.8605L82.4822 72.25L34.9578 4.46912L32.6608 6.0796L80.1853 73.8605Z" fill="#D8C3A4"/>
<path d="M83.1624 73.88L80.6289 72.7377L115.416 0.304688L117.95 1.44575L83.1624 73.88Z" fill="#D8C3A4"/>
<path d="M78.0767 74.1684L80.6305 73.0729L47.2596 0.015625L44.7046 1.11119L78.0767 74.1684Z" fill="#D8C3A4"/>
<path d="M76.8 69.0799H84.014C84.6723 69.0799 85.3143 68.8815 85.8576 68.5099L147.906 26.0323C148.638 25.5306 149.63 25.6582 150.211 26.328L152.774 29.2798L84.5637 77.5903H74.6746L4.98743 30.4423L7.91525 26.4808C8.46618 25.7353 9.50361 25.5508 10.2782 26.0588L75.0082 68.5453C75.5415 68.8941 76.1632 69.0799 76.8 69.0799Z" fill="#1481EA"/>
<path d="M76.1375 82.6487H84.4762C84.9829 82.6487 85.4782 82.4933 85.8952 82.2039L157.238 32.66C158.572 31.7338 158.77 29.8371 157.657 28.6531C156.758 27.6966 155.293 27.5411 154.211 28.2866L86.5144 74.9672C85.9937 75.326 85.3771 75.5182 84.7453 75.5182H76.7668C76.154 75.5182 75.5537 75.3374 75.0432 74.9988L4.49051 28.1868C3.46951 27.5083 2.09975 27.7167 1.32642 28.6682C0.449468 29.7474 0.680696 31.3433 1.82553 32.1305L74.7299 82.2102C75.1431 82.4958 75.6346 82.6487 76.1375 82.6487Z" fill="#94CCEF"/>
<path d="M84.9963 61.9707H75.8148C75.37 61.9707 75.0099 62.3308 75.0099 62.7769V71.9672H85.8025V62.7769C85.8012 62.3308 85.4411 61.9707 84.9963 61.9707Z" fill="#1481EA"/>
<path d="M92.9911 63.634V70.5042L95.8178 68.5697V75.3389L98.6799 73.3512L98.4107 70.8442L99.7691 65.8453L99.7173 59.0293L92.9911 63.634Z" fill="#94CCEF"/>
<path d="M99.5484 72.7305L99.2932 82.6562L96.4058 78.859L93.262 82.9986V77.0963L99.5484 72.7305Z" fill="#94CCEF"/>
<path d="M97.6585 67.2927L93.7059 70.017V76.7862L100.181 72.2903V65.5527L97.6585 67.2927Z" fill="#94CCEF"/>
</svg>
