<svg width="138" height="111" viewBox="0 0 138 111" fill="none" xmlns="http://www.w3.org/2000/svg">
<path d="M10.0459 79.4294V96.4986C10.0459 96.8233 10.2729 97.1029 10.5897 97.1689L73.1589 110.076C73.2587 110.097 73.3628 110.094 73.4615 110.069L135.718 94.4388C136.022 94.3628 136.235 94.0887 136.235 93.775V92.4891C136.235 92.2359 136.095 92.0025 135.872 91.8847L133.697 90.7288C133.47 90.6088 133.33 90.3699 133.334 90.1123L133.488 80.8463C133.493 80.4962 133.762 80.2066 134.11 80.1758L135.661 80.0404C136.662 79.9535 137.431 79.1113 137.431 78.1018V77.7176C137.431 77.3829 137.191 77.0978 136.862 77.0427L77.3575 67.027C77.2807 67.0138 77.2029 67.0148 77.1273 67.028L10.6072 78.7568C10.2838 78.8129 10.0459 79.097 10.0459 79.4294Z" fill="#1481EA"/>
<path d="M10.0459 79.4294V96.4986C10.0459 96.8233 10.2729 97.1029 10.5897 97.1689L72.8608 110.014C73.1568 110.076 73.4637 110.069 73.7575 109.995L135.719 94.4388C136.023 94.3628 136.236 94.0887 136.236 93.775V92.4891C136.236 92.2359 136.097 92.0025 135.873 91.8847L133.698 90.7288C133.471 90.6088 133.331 90.3699 133.335 90.1123L133.489 80.8463C133.494 80.4962 133.763 80.2066 134.111 80.1758L135.281 80.0734C136.498 79.9666 137.432 78.944 137.432 77.7176C137.432 77.3829 137.192 77.0978 136.863 77.0427L77.3586 67.027C77.2818 67.0138 77.204 67.0148 77.1284 67.028L10.6083 78.7568C10.2838 78.8129 10.0459 79.097 10.0459 79.4294Z" fill="#8D0002"/>
<path d="M13.9792 86.0344V92.4911C13.9792 93.3508 14.5832 94.0906 15.4229 94.259L71.2461 105.487C72.8893 105.817 74.5841 105.784 76.2131 105.39L133.699 90.7307C133.472 90.6108 133.332 90.3719 133.336 90.1143L133.49 80.8482C133.142 80.879 133.495 80.4981 133.49 80.8482L76.2964 95.0891C74.6137 95.5284 72.8531 95.5801 71.1474 95.24L16.1245 84.2664C15.014 84.044 13.9792 84.8972 13.9792 86.0344Z" fill="#CACACA"/>
<path d="M16.1245 84.2636C15.014 84.0423 13.9792 84.8956 13.9792 86.0328V92.4894C13.9792 93.3492 14.5833 94.0889 15.423 94.2574L70.6102 105.358V95.1304L16.1245 84.2636Z" fill="white"/>
<path d="M133.488 80.8489C133.14 80.8786 133.495 80.4977 133.488 80.8489V80.8489Z" fill="#CACACA"/>
<path d="M133.49 82.3324L70.609 96.6824L13.979 86.0292L14.2015 85.1727C14.3539 83.7063 17.0934 84.4538 17.6218 84.5584L70.61 95.1257L133.491 80.8418L133.49 82.3324Z" fill="#BA9E7B"/>
<path d="M133.488 80.8398L70.6084 95.1237V96.6793L133.488 82.3293V80.8398Z" fill="white"/>
<path d="M110.663 27.7363L62.7108 48.9546C62.3337 49.0978 61.9172 49.0978 61.539 48.9546L13.5867 27.7363C12.2263 27.22 12.143 25.3188 13.4519 24.6836L61.4041 1.11713C61.8591 0.895853 62.3896 0.895853 62.8445 1.11713L110.797 24.6836C112.107 25.3188 112.023 27.22 110.663 27.7363Z" fill="white"/>
<path d="M0 57.1462V74.2154C0 74.5401 0.228025 74.8197 0.544835 74.8858L63.1142 87.7925C63.2139 87.8134 63.317 87.8112 63.4167 87.7858L125.674 72.1556C125.977 72.0796 126.19 71.8055 126.19 71.4918V70.2059C126.19 69.9527 126.051 69.7194 125.827 69.6016L123.652 68.4456C123.425 68.3256 123.285 68.0867 123.289 67.8291L123.443 58.5631C123.448 58.213 123.717 57.9234 124.065 57.8926L125.617 57.7572C126.617 57.6703 127.386 56.8281 127.386 55.8186V55.4344C127.386 55.0997 127.146 54.8145 126.817 54.7595L67.3127 44.7438C67.2359 44.7306 67.1581 44.7316 67.0825 44.7448L0.562365 56.4736C0.236785 56.5297 0 56.8138 0 57.1462Z" fill="#1481EA"/>
<path d="M0 57.1462V74.2154C0 74.5401 0.228025 74.8197 0.544835 74.8858L63.1142 87.7925C63.2139 87.8134 63.317 87.8112 63.4167 87.7858L125.674 72.1556C125.977 72.0796 126.19 71.8055 126.19 71.4918V70.2059C126.19 69.9527 126.051 69.7194 125.827 69.6016L123.652 68.4456C123.425 68.3256 123.285 68.0867 123.289 67.8291L123.443 58.5631C123.448 58.213 123.717 57.9234 124.065 57.8926L125.235 57.7903C126.452 57.6846 127.386 56.6608 127.386 55.4344C127.386 55.0997 127.146 54.8145 126.817 54.7595L67.3127 44.7438C67.2359 44.7306 67.1581 44.7316 67.0825 44.7448L0.562365 56.4736C0.236785 56.5297 0 56.8138 0 57.1462Z" fill="#C71813"/>
<path d="M3.93256 63.7532V70.2098C3.93256 71.0696 4.53653 71.8094 5.37624 71.9778L61.1994 83.2057C62.8426 83.5359 64.5374 83.5029 66.1664 83.1088L123.653 68.4495C123.426 68.3295 123.285 68.0906 123.29 67.833L123.443 58.5669C123.096 58.5978 123.449 58.2169 123.443 58.5669L66.2497 72.8079C64.567 73.2471 62.8064 73.2989 61.1007 72.9587L6.07784 61.9851C4.96736 61.7628 3.93256 62.616 3.93256 63.7532Z" fill="#CACACA"/>
<path d="M6.07784 61.9765C4.96736 61.7552 3.93256 62.6084 3.93256 63.7456V70.2022C3.93256 71.062 4.53653 71.8018 5.37624 71.9703L60.5636 83.0704V72.8432L6.07784 61.9765Z" fill="white"/>
<path d="M123.444 58.5618C123.096 58.5915 123.449 58.2106 123.444 58.5618V58.5618Z" fill="#CACACA"/>
<path d="M123.444 60.0511L60.563 74.4011L3.93311 63.7468L4.15564 62.8903C4.30802 61.424 7.04639 62.1714 7.57586 62.276L60.5641 72.8445L123.445 58.5605L123.444 60.0511Z" fill="#BA9E7B"/>
<path d="M123.442 58.5645L60.5617 72.8483V74.4039L123.442 60.0539V58.5645Z" fill="white"/>
<path d="M68.3452 21.8848H55.9074C42.8415 21.8848 32.2486 32.5225 32.2486 45.6439V57.0413C32.2486 57.7998 32.8614 58.4152 33.6167 58.4152L51.3767 59.9608C58.5296 60.5828 65.7219 60.5828 72.8747 59.9608L90.6347 58.4152C91.39 58.4152 92.0028 57.7998 92.0028 57.0413V45.6439C92.0039 32.5214 81.4111 21.8848 68.3452 21.8848Z" fill="#1481EA"/>
<path d="M30.6065 87.2518L32.2486 87.8088V15.4492L30.6065 16.2319V87.2518Z" fill="white"/>
<path d="M34.9174 93.2007H33.9549C33.5668 93.2007 33.1952 93.0411 32.9266 92.7592L32.4114 92.2187C31.8676 91.6484 30.9666 91.6286 30.3987 92.1747L29.7454 92.8033C29.4801 93.0576 29.1282 93.2007 28.761 93.2007H27.9366L29.7267 87.2097C29.9076 86.6053 30.4612 86.1914 31.0905 86.1914H31.9137C32.555 86.1914 33.1163 86.6218 33.2862 87.2416L34.9174 93.2007Z" fill="white"/>
<path d="M31.4268 86.803C32.8448 86.803 33.9942 85.6486 33.9942 84.2247C33.9942 82.8008 32.8448 81.6465 31.4268 81.6465C30.0089 81.6465 28.8594 82.8008 28.8594 84.2247C28.8594 85.6486 30.0089 86.803 31.4268 86.803Z" fill="#1481EA"/>
</svg>
