<svg width="148" height="127" viewBox="0 0 148 127" fill="none" xmlns="http://www.w3.org/2000/svg">
<path d="M136.619 82.0879H10.6255C10.508 82.0879 10.412 82.1839 10.412 82.3014V114.627C10.412 114.745 10.508 114.841 10.6255 114.841H136.619C136.737 114.841 136.833 114.745 136.833 114.627V82.3014C136.833 82.1839 136.737 82.0879 136.619 82.0879Z" fill="#94CCEF"/>
<path d="M146.807 58.3418H0.213559C0.0960428 58.3418 0 58.4378 0 58.5554V81.8716C0 81.9891 0.0960428 82.0852 0.213559 82.0852H146.807C146.924 82.0852 147.02 81.9891 147.02 81.8716V58.5554C147.02 58.4378 146.924 58.3418 146.807 58.3418Z" fill="#94CCEF"/>
<path d="M138.572 28.4023H18.1547C18.0372 28.4023 17.9412 28.4984 17.9412 28.6159V57.9242C17.9412 58.0417 18.0372 58.1378 18.1547 58.1378H138.572C138.69 58.1378 138.786 58.0417 138.786 57.9242V28.6146C138.786 28.4971 138.69 28.4023 138.572 28.4023Z" fill="#FFD25D"/>
<path d="M146.318 0.404297H12.5085C12.391 0.404297 12.2949 0.500301 12.2949 0.617818V28.051C12.2949 28.1685 12.391 28.2645 12.5085 28.2645H146.318C146.435 28.2645 146.531 28.1685 146.531 28.051V0.617818C146.531 0.500301 146.435 0.404297 146.318 0.404297Z" fill="#1481EA"/>
<path d="M10.4132 113.066H5.9425V121.687L8.1779 126.615V114.834H10.4132V113.066Z" fill="#1481EA"/>
<path d="M29.1383 22.4963H25.877C22.2441 22.4963 19.2986 19.5508 19.2986 15.9179V12.6565C19.2986 9.02361 22.2441 6.07812 25.877 6.07812H29.1383C32.7712 6.07812 35.7167 9.02361 35.7167 12.6565V15.9179C35.7167 19.5508 32.7712 22.4963 29.1383 22.4963Z" fill="#D8C3A4"/>
<path d="M138.096 61.6992H118.096V77.483H138.096V61.6992Z" fill="#D8C3A4"/>
<path d="M29.2025 82.0742H17.9412V114.98H29.2025V82.0742Z" fill="#1481EA"/>
<path d="M129.358 82.002H118.096V114.908H129.358V82.002Z" fill="#1481EA"/>
<path d="M37.1422 36.8635C37.1422 39.0559 35.3656 40.8325 33.1732 40.8325C30.9809 40.8325 29.2042 39.0559 29.2042 36.8635C29.2042 34.6712 30.9809 32.8945 33.1732 32.8945C35.3656 32.8945 37.1422 34.6712 37.1422 36.8635Z" fill="#1481EA"/>
<path d="M37.1422 49.6839C37.1422 51.8763 35.3656 53.6529 33.1732 53.6529C30.9809 53.6529 29.2042 51.8763 29.2042 49.6839C29.2042 47.4915 30.9809 45.7148 33.1732 45.7148C35.3656 45.7148 37.1422 47.4928 37.1422 49.6839Z" fill="#1481EA"/>
<path d="M118.096 32.8945H85.2676V53.6507H118.096V32.8945Z" fill="#D8C3A4"/>
<path d="M73.6242 106.473C90.9531 106.473 105.001 102.916 105.001 98.5284C105.001 94.1408 90.9531 90.584 73.6242 90.584C56.2952 90.584 42.2473 94.1408 42.2473 98.5284C42.2473 102.916 56.2952 106.473 73.6242 106.473Z" fill="#D8C3A4"/>
<path opacity="0.2" d="M136.833 82.0879H10.679V85.6437H136.833V82.0879Z" fill="#2B2925"/>
<path opacity="0.2" d="M138.786 28.2637H17.9412V31.8195H138.786V28.2637Z" fill="#2B2925"/>
<path opacity="0.2" d="M138.786 54.8613H17.9412V58.4171H138.786V54.8613Z" fill="#2B2925"/>
<path opacity="0.2" d="M136.59 111.291H10.4353V114.847H136.59V111.291Z" fill="#2B2925"/>
<path d="M130.989 22.4963H127.728C124.095 22.4963 121.15 19.5508 121.15 15.9179V12.6565C121.15 9.02361 124.095 6.07812 127.728 6.07812H130.989C134.622 6.07812 137.568 9.02361 137.568 12.6565V15.9179C137.568 19.5508 134.622 22.4963 130.989 22.4963Z" fill="#94CCEF"/>
<path d="M102.42 9.54022H54.3093C50.2657 9.54022 46.9879 6.26239 46.9879 2.21882V0.404297H109.742V2.21882C109.742 6.26239 106.464 9.54022 102.42 9.54022Z" fill="#94CCEF"/>
<path d="M17.8361 58.4238H10.679V82.0863H17.8361V58.4238Z" fill="#D8C3A4"/>
</svg>
