<svg width="138" height="108" viewBox="0 0 138 108" fill="none" xmlns="http://www.w3.org/2000/svg">
<path d="M1.26214 84.4121H137.304C137.687 84.4121 137.999 84.7248 137.999 85.1101V96.8487C137.999 97.234 137.687 97.5467 137.304 97.5467H1.26214C0.878461 97.5467 0.567139 97.234 0.567139 96.8487V85.1101C0.567139 84.7248 0.877365 84.4121 1.26214 84.4121Z" fill="#C71813"/>
<path d="M0.567139 92.4238H138V96.8461C138 97.2314 137.689 97.544 137.305 97.544H1.26324C0.879557 97.544 0.568234 97.2314 0.568234 96.8461L0.567139 92.4238Z" fill="#F2BF4C"/>
<path d="M130.566 64.6127C130.566 75.8307 121.511 84.9239 110.34 84.9239C99.1699 84.9239 90.1151 75.8307 90.1151 64.6127C90.1151 56.9143 93.9048 48.2922 100.668 48.3153C105.599 48.3318 106.837 51.0939 110.34 51.0939C113.754 51.0939 116.29 48.0016 119.727 48.3153C126.491 48.9329 130.566 56.8229 130.566 64.6127Z" fill="#8D0002"/>
<path d="M111.726 50.9183L104.595 37.0703C104.512 36.9085 104.289 36.8821 104.176 37.0241C103.301 38.1206 100.502 42.1795 102.847 46.7537C102.849 46.7581 102.849 46.757 102.851 46.7614C102.895 46.8461 105.391 51.6328 111.512 51.2959C111.693 51.286 111.811 51.0823 111.726 50.9183Z" fill="#1481EA"/>
<path d="M31.0547 0H11.1439C10.4095 0 9.81421 0.597757 9.81421 1.33534V83.1228C9.81421 83.8604 10.4095 84.4582 11.1439 84.4582H31.0547C31.7892 84.4582 32.3844 83.8604 32.3844 83.1228V1.33534C32.3844 0.597757 31.7892 0 31.0547 0Z" fill="#1481EA"/>
<path d="M42.0725 9.19472L33.6787 11.1917C32.964 11.3612 32.5222 12.0812 32.691 12.799L49.3383 83.3774C49.5071 84.0951 50.2241 84.5388 50.9388 84.3693L59.3326 82.3723C60.0474 82.2027 60.4891 81.4827 60.3203 80.765L43.673 10.1866C43.5042 9.46774 42.7873 9.02408 42.0725 9.19472Z" fill="#8D0002"/>
<path d="M56.2651 1.84704L43.9918 6.92096C43.3121 7.20168 42.9888 7.98221 43.2683 8.66366L74.0383 83.7336C74.3178 84.4151 75.095 84.7409 75.7736 84.4602L88.0469 79.3862C88.7255 79.1055 89.05 78.325 88.7705 77.6435L57.9994 2.57362C57.7209 1.89108 56.9437 1.56631 56.2651 1.84704Z" fill="#8BD3FF"/>
<path d="M32.3844 7.77539H9.81421V16.0177H32.3844V7.77539Z" fill="#C71813"/>
<path d="M32.3844 67.8555H9.81421V76.0977H32.3844V67.8555Z" fill="#C71813"/>
<path d="M40.1913 22.2001C41.8913 22.2001 43.2695 20.8161 43.2695 19.1088C43.2695 17.4016 41.8913 16.0176 40.1913 16.0176C38.4913 16.0176 37.1131 17.4016 37.1131 19.1088C37.1131 20.8161 38.4913 22.2001 40.1913 22.2001Z" fill="#C71813"/>
<path d="M55.0537 70.9467C55.0537 72.6542 53.6757 74.038 51.9755 74.038C50.2752 74.038 48.8973 72.6542 48.8973 70.9467C48.8973 69.2393 50.2752 67.8555 51.9755 67.8555C53.6757 67.8555 55.0537 69.2404 55.0537 70.9467Z" fill="#C71813"/>
<path d="M52.9802 9.07869L51.3951 9.73372C49.629 10.4636 48.7871 12.4925 49.5139 14.266L55.0937 27.8806C55.8205 29.6541 57.8409 30.4996 59.6069 29.7697L61.1909 29.1147C62.957 28.3848 63.7989 26.3559 63.0721 24.5824L57.4923 10.9689C56.7655 9.1943 54.7451 8.34881 52.9802 9.07869Z" fill="#C71813"/>
<path d="M72.7488 57.5083L71.1637 58.1633C69.3977 58.8932 68.5558 60.9221 69.2826 62.6956L74.8623 76.309C75.5891 78.0826 77.6095 78.928 79.3755 78.1982L80.9607 77.5431C82.7267 76.8132 83.5686 74.7843 82.8418 73.0108L77.262 59.3974C76.5352 57.6249 74.5148 56.7784 72.7488 57.5083Z" fill="#C71813"/>
<path d="M32.3844 69.9141H9.81421V74.0347H32.3844V69.9141Z" fill="#8BD3FF"/>
<path d="M32.3844 9.83789H9.81421V13.9585H32.3844V9.83789Z" fill="#8BD3FF"/>
<path d="M21.8242 107.599H20.375C18.7603 107.599 17.4514 106.285 17.4514 104.663V97.543H24.7467V104.663C24.7478 106.285 23.4389 107.599 21.8242 107.599Z" fill="#5B4A45"/>
<path d="M116.126 107.599H114.677C113.062 107.599 111.753 106.285 111.753 104.663V97.543H119.048V104.663C119.049 106.285 117.741 107.599 116.126 107.599Z" fill="#5B4A45"/>
</svg>
