<svg width="124" height="85" viewBox="0 0 124 85" fill="none" xmlns="http://www.w3.org/2000/svg">
<path d="M122.419 79.1942H0.737501C0.330333 79.1942 -0.00012207 78.8638 -0.00012207 78.4566V76.765C-0.00012207 76.3578 0.330333 76.0273 0.737501 76.0273H122.418C122.825 76.0273 123.155 76.3578 123.155 76.765V78.4566C123.156 78.8638 122.826 79.1942 122.419 79.1942Z" fill="#685853"/>
<path d="M65.1816 79.1914C64.8187 80.8506 63.3454 82.0947 61.5771 82.0947C59.8087 82.0947 58.3355 80.8506 57.9726 79.1914H54.368C55.0939 82.5097 58.0424 84.997 61.5781 84.997C65.1147 84.997 68.0622 82.5097 68.7881 79.1914H65.1816Z" fill="#5B4A45"/>
<path d="M66.6705 70.3393C66.6705 70.3393 90.4318 59.2533 118.056 62.1163L118.055 60.6843C118.055 60.6843 91.4193 56.1848 61.578 70.3944L66.6705 70.3393Z" fill="#D8C3A4"/>
<path d="M67.9021 70.7283C67.9021 70.7283 92.5387 63.175 118.868 69.9749L119.077 68.5587C119.077 68.5587 93.9451 60.2816 62.963 70.0506L67.9021 70.7283Z" fill="#D8C3A4"/>
<path d="M65.4962 70.3936C65.4962 70.3936 86.9198 51.48 118.056 56.9226L118.055 55.4907C118.055 55.4907 91.02 47.5932 61.578 70.3936H65.4962Z" fill="#D8C3A4"/>
<path d="M56.3818 70.5346C56.3818 70.5346 32.6206 59.4486 4.99609 62.3116V60.8796C4.99609 60.8796 31.6321 56.3801 61.4734 70.5897L56.3818 70.5346Z" fill="#D8C3A4"/>
<path d="M55.1516 70.9197C55.1516 70.9197 30.515 63.3664 4.18579 70.1663L3.97632 68.7501C3.97632 68.7501 29.1086 60.473 60.0907 70.2421L55.1516 70.9197Z" fill="#D8C3A4"/>
<path d="M57.5561 70.5928C57.5561 70.5928 36.1326 51.6792 4.99609 57.1218V55.6899C4.99609 55.6899 32.0314 47.7924 61.4734 70.5928H57.5561Z" fill="#D8C3A4"/>
<path d="M61.5791 70.3984H4.46056C4.13502 70.3984 3.87048 70.662 3.87048 70.9885V75.4389C3.87048 75.7644 4.13502 76.029 4.46056 76.029H61.5782H118.696C119.021 76.029 119.286 75.7654 119.286 75.4389V70.9885C119.286 70.663 119.022 70.3984 118.696 70.3984H61.5791Z" fill="#C9B293"/>
<path opacity="0.2" d="M65.4956 70.3984H57.8745V79.1948H65.4956V70.3984Z" fill="#3D3934"/>
<path d="M74.9655 31.9557C74.9655 24.5676 69.0261 18.5664 61.6617 18.466C54.7349 18.3716 48.6736 23.8497 48.0393 30.7479C47.8485 32.8241 48.1593 34.796 48.8222 36.5998C49.4614 38.3396 50.4429 39.9102 51.6939 41.2291L55.2719 46.9963V54.0519C55.2719 54.6086 55.7234 55.06 56.28 55.06H58.3739V60.0994C58.3739 60.9128 59.0338 61.5727 59.8471 61.5727H63.4133C64.2267 61.5727 64.8866 60.9128 64.8866 60.0994V55.06H66.6697C67.2263 55.06 67.6778 54.6086 67.6778 54.0519V46.9963L71.2557 41.2291C73.5492 38.8116 74.9655 35.5523 74.9655 31.9557Z" fill="white"/>
<path d="M58.371 60.1017C58.371 60.9151 59.0309 61.575 59.8442 61.575H63.4104C64.2238 61.575 64.8837 60.9151 64.8837 60.1017V55.0898H58.371V60.1017Z" fill="#BF493A"/>
<path d="M66.6674 55.0597C67.2241 55.0597 67.6755 54.6083 67.6755 54.0516V47.0078H55.2706V54.0516C55.2706 54.6083 55.722 55.0597 56.2787 55.0597H58.3726V55.0872H64.8853V55.0597H66.6674Z" fill="#E25744"/>
<path d="M61.7596 13.5669H61.1891C60.5538 13.5669 60.0375 13.0515 60.0375 12.4152V1.21809C60.0375 0.582747 60.5528 0.0664062 61.1891 0.0664062H61.7596C62.3949 0.0664062 62.9113 0.581764 62.9113 1.21809V12.4152C62.9103 13.0515 62.3949 13.5669 61.7596 13.5669Z" fill="white"/>
<path d="M80.052 21.3047L79.6487 20.9015C79.1993 20.452 79.1993 19.7232 79.6487 19.2738L87.5659 11.3566C88.0153 10.9072 88.7441 10.9072 89.1936 11.3566L89.5968 11.7598C90.0463 12.2093 90.0463 12.9381 89.5968 13.3875L81.6787 21.3057C81.2302 21.7542 80.5014 21.7541 80.052 21.3047Z" fill="white"/>
<path d="M43.0011 21.3047L43.4043 20.9015C43.8538 20.452 43.8538 19.7232 43.4043 19.2738L35.4862 11.3566C35.0367 10.9072 34.308 10.9072 33.8585 11.3566L33.4553 11.7598C33.0058 12.2093 33.0058 12.9381 33.4553 13.3875L41.3724 21.3057C41.8219 21.7542 42.5506 21.7541 43.0011 21.3047Z" fill="white"/>
<path d="M86.6321 39.0112V38.4407C86.6321 37.8054 87.1474 37.2891 87.7837 37.2891H98.9809C99.6162 37.2891 100.133 37.8044 100.133 38.4407V39.0112C100.133 39.6465 99.6172 40.1628 98.9809 40.1628H87.7837C87.1474 40.1628 86.6321 39.6475 86.6321 39.0112Z" fill="white"/>
<path d="M22.8163 39.0112V38.4407C22.8163 37.8054 23.3317 37.2891 23.968 37.2891H35.1651C35.8004 37.2891 36.3168 37.8044 36.3168 38.4407V39.0112C36.3168 39.6465 35.8014 40.1628 35.1651 40.1628H23.968C23.3317 40.1628 22.8163 39.6475 22.8163 39.0112Z" fill="white"/>
</svg>
