<svg width="124" height="108" viewBox="0 0 124 108" fill="none" xmlns="http://www.w3.org/2000/svg">
<path d="M114.635 69.9082H9.31532C9.21709 69.9082 9.13687 69.9904 9.13687 70.0909V97.7414C9.13687 97.8419 9.21709 97.9241 9.31532 97.9241H114.635C114.733 97.9241 114.813 97.8419 114.813 97.7414V70.0909C114.813 69.9904 114.733 69.9082 114.635 69.9082Z" fill="#E25744"/>
<path d="M123.15 49.5996H0.61127C0.513038 49.5996 0.432755 49.6818 0.432755 49.7823V69.7263C0.432755 69.8268 0.513038 69.909 0.61127 69.909H123.15C123.248 69.909 123.328 69.8268 123.328 69.7263V49.7823C123.328 49.6818 123.248 49.5996 123.15 49.5996Z" fill="#685853"/>
<path d="M116.267 23.9902H15.6094C15.5111 23.9902 15.4308 24.0724 15.4308 24.1729V49.2423C15.4308 49.3429 15.5111 49.425 15.6094 49.425H116.267C116.366 49.425 116.446 49.3429 116.446 49.2423V24.1718C116.446 24.0713 116.366 23.9902 116.267 23.9902Z" fill="#FFD25D"/>
<path d="M122.742 0.0410156H10.8891C10.7909 0.0410156 10.7106 0.123135 10.7106 0.223655V23.6891C10.7106 23.7896 10.7909 23.8718 10.8891 23.8718H122.742C122.84 23.8718 122.92 23.7896 122.92 23.6891V0.223655C122.92 0.123135 122.84 0.0410156 122.742 0.0410156Z" fill="#63AFA1"/>
<path d="M9.13765 96.4102H5.40054V103.784L7.26913 107.999V97.9223H9.13765V96.4102Z" fill="#63AFA1"/>
<path d="M24.7888 18.9362H22.0626C19.0258 18.9362 16.5637 16.4167 16.5637 13.3092V10.5195C16.5637 7.41205 19.0258 4.89258 22.0626 4.89258H24.7888C27.8256 4.89258 30.2877 7.41205 30.2877 10.5195V13.3092C30.2877 16.4167 27.8256 18.9362 24.7888 18.9362Z" fill="#D8C3A4"/>
<path d="M115.868 52.4688H99.1503V65.9698H115.868V52.4688Z" fill="#D8C3A4"/>
<path d="M24.8443 69.9004H15.4308V98.047H24.8443V69.9004Z" fill="#63AFA1"/>
<path d="M108.564 69.8418H99.1503V97.9885H108.564V69.8418Z" fill="#63AFA1"/>
<path d="M31.4799 31.227C31.4799 33.1023 29.9948 34.622 28.1622 34.622C26.3295 34.622 24.8444 33.1023 24.8444 31.227C24.8444 29.3517 26.3295 27.832 28.1622 27.832C29.9948 27.832 31.4799 29.3517 31.4799 31.227Z" fill="#63AFA1"/>
<path d="M31.4799 42.1919C31.4799 44.0672 29.9948 45.5868 28.1622 45.5868C26.3295 45.5868 24.8444 44.0672 24.8444 42.1919C24.8444 40.3166 26.3295 38.7969 28.1622 38.7969C29.9948 38.7969 31.4799 40.3177 31.4799 42.1919Z" fill="#63AFA1"/>
<path d="M99.1501 27.832H71.7083V45.5862H99.1501V27.832Z" fill="#D8C3A4"/>
<path d="M61.976 90.7704C76.4614 90.7704 88.2042 87.728 88.2042 83.9751C88.2042 80.2221 76.4614 77.1797 61.976 77.1797C47.4906 77.1797 35.7478 80.2221 35.7478 83.9751C35.7478 87.728 47.4906 90.7704 61.976 90.7704Z" fill="#D8C3A4"/>
<path opacity="0.2" d="M114.813 69.9082H9.35954V72.9497H114.813V69.9082Z" fill="#2B2925"/>
<path opacity="0.2" d="M116.446 23.8691H15.4308V26.9107H116.446V23.8691Z" fill="#2B2925"/>
<path opacity="0.2" d="M116.446 46.625H15.4308V49.6665H116.446V46.625Z" fill="#2B2925"/>
<path opacity="0.2" d="M114.609 94.8906H9.15544V97.9322H114.609V94.8906Z" fill="#2B2925"/>
<path d="M109.928 18.9362H107.201C104.165 18.9362 101.703 16.4167 101.703 13.3092V10.5195C101.703 7.41205 104.165 4.89258 107.201 4.89258H109.928C112.964 4.89258 115.427 7.41205 115.427 10.5195V13.3092C115.427 16.4167 112.964 18.9362 109.928 18.9362Z" fill="#685853"/>
<path d="M86.0471 7.8556H45.8307C42.4507 7.8556 39.7107 5.05185 39.7107 1.5931V0.0410156H92.1671V1.5931C92.1671 5.05185 89.4272 7.8556 86.0471 7.8556Z" fill="#E25744"/>
<path d="M15.3422 49.668H9.35954V69.9081H15.3422V49.668Z" fill="#D8C3A4"/>
</svg>
