<svg width="123" height="82" viewBox="0 0 123 82" fill="none" xmlns="http://www.w3.org/2000/svg">
<path d="M122.882 18.6575L119.677 3.21411C119.547 2.59003 119.006 2.13828 118.369 2.12075L46.0631 0.234861C45.624 0.223178 45.2064 0.422777 44.9386 0.771329L0.34834 58.8928C-0.343896 59.7953 0.299655 61.1 1.43683 61.1H3.23217C3.9283 61.1 4.51344 61.6209 4.59522 62.3121L5.64477 71.2352C5.70416 71.7386 5.4812 72.2332 5.06449 72.5224C4.00131 73.2604 4.45697 74.9242 5.74798 75.0187L80.9719 80.4787C81.4626 80.5147 81.9357 80.284 82.2103 79.876L122.677 19.7022C122.883 19.3955 122.957 19.0187 122.882 18.6575Z" fill="#63AFA1"/>
<path d="M119.453 2.14844H119.456L123 19.2216L84.0956 77.0725L82.717 79.1219L78.3727 61.375C78.253 60.8853 78.3445 60.3722 78.6278 59.9555C81.7317 55.3921 100.667 27.6579 119.453 2.14844Z" fill="#52998B"/>
<path d="M75.2249 76.3104C75.3496 76.8955 74.8764 77.4359 74.2796 77.3911L5.3734 72.2144C5.58078 71.937 5.68592 71.5904 5.64406 71.235L4.60814 62.4258L72.5387 66.8051C72.9399 66.8314 73.2758 67.1205 73.3585 67.5148L75.2249 76.3104Z" fill="#D8C3A4"/>
<path d="M73.5742 68.5202L73.2013 66.6762C73.0786 66.0686 72.5636 65.6198 71.9444 65.5809L3.98945 61.332L4.60866 62.4254L72.6873 66.8271C72.9569 66.8446 73.1857 67.0335 73.2529 67.2944L73.5742 68.5202Z" fill="#BA9E7B"/>
<path d="M66.8662 68.5133L58.3024 67.9496C58.1953 67.9428 58.1076 68.0352 58.1213 68.1423L59.1737 76.2116C59.1776 76.2418 59.1737 76.2729 59.162 76.3002L58.1076 78.7868C58.0989 78.8082 58.094 78.8306 58.094 78.853V81.3639C58.094 81.4876 58.2206 81.5703 58.3335 81.5207L62.153 79.8344C62.2007 79.814 62.2542 79.8149 62.301 79.8393L66.4252 81.9763C66.5401 82.0357 66.6764 81.951 66.6744 81.8215L66.6374 79.4849C66.6364 79.4547 66.6442 79.4255 66.6588 79.3992L68.0014 76.9701C68.019 76.9389 68.0258 76.9019 68.0219 76.8668L67.023 68.6632C67.0152 68.5814 66.948 68.5182 66.8662 68.5133Z" fill="#E25744"/>
<path d="M59.174 76.2116L58.1216 68.1423C58.1079 68.0352 58.1946 67.9428 58.3027 67.9496L66.8665 68.5133C66.9483 68.5191 67.0155 68.5814 67.0252 68.6632L68.0241 76.8668C68.0261 76.8853 68.0173 76.9019 68.0134 76.9204L59.1692 76.2564C59.1701 76.2418 59.176 76.2272 59.174 76.2116Z" fill="#BF493A"/>
<path d="M66.6498 79.4405C66.646 79.4551 66.6382 79.4697 66.6391 79.4853L66.6761 81.822C66.6781 81.9514 66.5418 82.0361 66.4269 81.9768L62.3027 79.8397C62.2569 79.8153 62.2024 79.8144 62.1547 79.8348L58.3352 81.5211C58.2223 81.5708 58.0957 81.488 58.0957 81.3644V78.8544C58.0957 78.8427 58.1006 78.832 58.1025 78.8203L66.6498 79.4405Z" fill="#BF493A"/>
<path d="M86.0927 32.7598H64.9361L58.5249 29.875" stroke="#685853" stroke-miterlimit="10" stroke-linecap="round" stroke-linejoin="round"/>
<path d="M30.0967 32.7598H51.2542L57.6654 29.875" stroke="#685853" stroke-miterlimit="10" stroke-linecap="round" stroke-linejoin="round"/>
<path opacity="0.2" d="M34.9632 41.4162H51.0453C52.3957 41.4162 53.5426 40.427 53.7402 39.0903L55.4976 27.2298C55.741 25.5834 54.4665 24.1055 52.8026 24.1055H34.9642C33.459 24.1055 32.2391 25.3254 32.2391 26.8306V38.6911C32.2391 40.1963 33.459 41.4162 34.9632 41.4162Z" fill="#AAE5D9"/>
<path opacity="0.2" d="M81.1478 41.4162H65.0657C63.7153 41.4162 62.5684 40.427 62.3708 39.0903L60.6134 27.2298C60.37 25.5834 61.6445 24.1055 63.3084 24.1055H81.1468C82.652 24.1055 83.8719 25.3254 83.8719 26.8306V38.6911C83.8729 40.1963 82.653 41.4162 81.1478 41.4162Z" fill="#AAE5D9"/>
<path d="M34.9632 41.4162H51.0453C52.3957 41.4162 53.5426 40.427 53.7402 39.0903L55.4976 27.2298C55.741 25.5834 54.4665 24.1055 52.8026 24.1055H34.9642C33.459 24.1055 32.2391 25.3254 32.2391 26.8306V38.6911C32.2391 40.1963 33.459 41.4162 34.9632 41.4162Z" stroke="#685853" stroke-miterlimit="10" stroke-linecap="round" stroke-linejoin="round"/>
<path d="M81.1478 41.4162H65.0657C63.7153 41.4162 62.5684 40.427 62.3708 39.0903L60.6134 27.2298C60.37 25.5834 61.6445 24.1055 63.3084 24.1055H81.1468C82.652 24.1055 83.8719 25.3254 83.8719 26.8306V38.6911C83.8729 40.1963 82.653 41.4162 81.1478 41.4162Z" stroke="#685853" stroke-miterlimit="10" stroke-linecap="round" stroke-linejoin="round"/>
</svg>
