<svg width="112" height="105" viewBox="0 0 112 105" fill="none" xmlns="http://www.w3.org/2000/svg">
<path d="M83.6584 104.133H4.11819C2.18733 104.133 0.621948 102.531 0.621948 100.556V4.53858C0.621948 2.56277 2.18733 0.960938 4.11819 0.960938H83.6584V104.133Z" fill="#63AFA1"/>
<path d="M9.19562 14.5662C9.19562 18.5394 12.3433 21.7593 16.2251 21.7593H83.6583V7.37305H16.2251C12.3433 7.37305 9.19562 10.5929 9.19562 14.5662Z" fill="#D8C3A4"/>
<path d="M2.86154 0.960938C1.62465 0.960938 0.622253 1.98667 0.622253 3.25235V101.843C0.622253 103.109 1.62465 104.134 2.86154 104.134H8.77455V0.96201L2.86154 0.960938Z" fill="#52998B"/>
<path d="M9.9325 11.4187C11.0764 9.03108 13.452 7.37305 16.2257 7.37305H83.6589V11.4187H9.9325Z" fill="#C9B293"/>
<path d="M9.19486 14.5624C9.19486 14.5624 9.1019 11.2766 12.089 8.98409C13.4506 7.9389 15.1501 7.45791 16.8528 7.45575L83.6576 7.36928V5.12109H15.3519C13.834 5.12109 12.3162 5.52643 11.0835 6.43219C9.35967 7.70004 7.76468 10.1114 9.19486 14.5624Z" fill="#52998B"/>
<path d="M75.3242 78.9375H62.3121V92.2526H75.3242V78.9375Z" fill="#F2BF4C"/>
<path d="M98.1477 85.5981C98.1477 89.8156 94.8067 93.2333 90.6862 93.2333C86.5657 93.2333 83.2247 89.8145 83.2247 85.5981C83.2247 81.3806 86.5657 77.9629 90.6862 77.9629C94.8067 77.9629 98.1477 81.3817 98.1477 85.5981Z" fill="#F2BF4C"/>
<path d="M71.7775 78.9383L90.6857 66.9375V104.134L71.7775 92.2534V78.9383Z" fill="#E25744"/>
<path d="M105.978 74.9833C107.722 77.8691 110.865 85.2882 106.074 96.2265C105.627 97.2468 106.334 98.4011 107.427 98.4011H107.598C108.155 98.4011 108.667 98.0888 108.922 97.5819C110.469 94.5155 115.218 83.3794 108.51 73.3501C108.082 72.7091 107.258 72.4811 106.582 72.8334C105.807 73.2355 105.522 74.2288 105.978 74.9833Z" fill="#63AFA1"/>
<path d="M101.261 78.5294C102.419 80.4458 104.506 85.3723 101.324 92.6357C101.028 93.3134 101.498 94.0797 102.223 94.0797H102.336C102.707 94.0797 103.046 93.8722 103.216 93.535C104.243 91.4986 107.397 84.1034 102.943 77.4431C102.657 77.0173 102.11 76.866 101.661 77.1005C101.148 77.3696 100.958 78.029 101.261 78.5294Z" fill="#63AFA1"/>
<path d="M71.7792 30.0742H21.4565V47.8284H71.7792V30.0742Z" fill="#D8C3A4"/>
<path d="M69.5854 32.0898H23.6494V45.8124H69.5854V32.0898Z" fill="#F2BF4C"/>
</svg>
