<svg width="138" height="41" viewBox="0 0 138 41" fill="none" xmlns="http://www.w3.org/2000/svg">
<path d="M136.45 34.4999H0.822109C0.368271 34.4999 -6.10352e-05 34.13 -6.10352e-05 33.6742V31.7807C-6.10352e-05 31.325 0.368271 30.9551 0.822109 30.9551H136.45C136.904 30.9551 137.273 31.325 137.273 31.7807V33.6742C137.273 34.13 136.904 34.4999 136.45 34.4999Z" fill="#1481EA"/>
<path d="M60.5986 34.502C61.4076 38.2163 64.6941 41.0004 68.6351 41.0004C72.5771 41.0004 75.8614 38.2163 76.6715 34.502H60.5986Z" fill="#52998B"/>
<path d="M74.3115 24.5919C74.3115 24.5919 100.796 12.1828 131.587 15.3875V13.7846C131.587 13.7846 101.898 8.74806 68.6364 24.6535L74.3115 24.5919Z" fill="white"/>
<path d="M75.6851 25.0244C75.6851 25.0244 103.146 16.5697 132.493 24.1811L132.726 22.5959C132.726 22.5959 104.713 13.3309 70.1798 24.2659L75.6851 25.0244Z" fill="white"/>
<path d="M62.8444 24.8068C62.8444 24.8068 36.3596 12.3977 5.56879 15.6023V13.9995C5.56879 13.9995 35.2579 8.96296 68.5196 24.8673L62.8444 24.8068Z" fill="white"/>
<path d="M61.4731 25.2412C61.4731 25.2412 34.0126 16.7864 4.66558 24.3979L4.43207 22.8126C4.43207 22.8126 32.4461 13.5477 66.9783 24.4827L61.4731 25.2412Z" fill="white"/>
<path d="M80.742 14.1356C81.8623 12.8168 82.542 11.1082 82.542 9.23892C82.542 5.0666 79.1733 1.68359 75.0186 1.68359C72.2429 1.68359 69.8247 3.19728 68.5213 5.44307C67.2167 3.19728 64.7996 1.68359 62.0239 1.68359C57.8692 1.68359 54.5005 5.0666 54.5005 9.23892C54.5005 11.7919 55.7656 14.0454 57.696 15.4126L68.5224 24.1778C68.5224 24.1778 80.1544 14.8281 80.742 14.1356Z" stroke="white" stroke-width="2" stroke-miterlimit="10" stroke-linecap="round" stroke-linejoin="round"/>
<path d="M68.6365 24.6562H4.9721C4.60925 24.6562 4.31439 24.9513 4.31439 25.3168V30.2982C4.31439 30.6626 4.60815 30.9588 4.9721 30.9588H68.6365H132.301C132.664 30.9588 132.959 30.6637 132.959 30.2982V25.3168C132.959 24.9524 132.664 24.6562 132.301 24.6562H68.6365Z" fill="white"/>
<path opacity="0.2" d="M73.0026 24.6562H64.5079V34.5025H73.0026V24.6562Z" fill="#3D3934"/>
</svg>
