<svg width="138" height="110" viewBox="0 0 138 110" fill="none" xmlns="http://www.w3.org/2000/svg">
<path d="M10.0458 78.4864V95.4834C10.0458 95.8068 10.2728 96.0852 10.5896 96.1509L73.1589 109.003C73.2587 109.024 73.3628 109.022 73.4615 108.997L135.718 93.4323C136.022 93.3567 136.235 93.0837 136.235 92.7713V91.4909C136.235 91.2388 136.095 91.0064 135.872 90.8891L133.697 89.738C133.47 89.6185 133.33 89.3807 133.334 89.1241L133.488 79.8972C133.493 79.5486 133.762 79.2603 134.11 79.2296L135.661 79.0948C136.662 79.0082 137.431 78.1696 137.431 77.1643V76.7818C137.431 76.4485 137.191 76.1645 136.862 76.1097L77.3575 66.1363C77.2807 66.1231 77.2029 66.1242 77.1272 66.1374L10.6071 77.8166C10.2837 77.8725 10.0458 78.1553 10.0458 78.4864Z" fill="#1481EA"/>
<path d="M10.0458 78.4864V95.4834C10.0458 95.8068 10.2728 96.0852 10.5896 96.1509L72.8608 108.942C73.1567 109.003 73.4637 108.997 73.7575 108.923L135.72 93.4323C136.023 93.3567 136.236 93.0837 136.236 92.7713V91.4909C136.236 91.2388 136.097 91.0064 135.873 90.8891L133.698 89.738C133.471 89.6185 133.331 89.3807 133.335 89.1241L133.489 79.8972C133.494 79.5486 133.763 79.2603 134.111 79.2296L135.281 79.1276C136.498 79.0213 137.432 78.003 137.432 76.7818C137.432 76.4485 137.192 76.1645 136.863 76.1097L77.3585 66.1363C77.2818 66.1231 77.204 66.1242 77.1284 66.1374L10.6082 77.8166C10.2837 77.8725 10.0458 78.1553 10.0458 78.4864Z" fill="#8D0002"/>
<path d="M13.9794 85.0627V91.492C13.9794 92.3482 14.5834 93.0848 15.4231 93.2525L71.2463 104.433C72.8896 104.762 74.5843 104.729 76.2133 104.336L133.699 89.7392C133.473 89.6197 133.332 89.3818 133.337 89.1253L133.49 79.8983C133.143 79.929 133.496 79.5497 133.49 79.8983L76.2966 94.0791C74.6139 94.5165 72.8533 94.568 71.1476 94.2293L16.1247 83.3021C15.0142 83.0807 13.9794 83.9303 13.9794 85.0627Z" fill="#D1C4A3"/>
<path d="M16.1247 83.2986C15.0142 83.0783 13.9794 83.9279 13.9794 85.0603V91.4897C13.9794 92.3458 14.5835 93.0824 15.4232 93.2502L70.6105 104.303V94.1195L16.1247 83.2986Z" fill="#C9B293"/>
<path d="M133.489 79.8995C133.141 79.9292 133.495 79.5487 133.489 79.8995V79.8995Z" fill="#D1C4A3"/>
<path d="M133.49 81.3769L70.6089 95.6662L13.9789 85.058L14.2014 84.2052C14.3538 82.745 17.0933 83.4893 17.6217 83.5935L70.61 94.1162L133.491 79.8926L133.49 81.3769Z" fill="#BA9E7B"/>
<path d="M133.488 79.8926L70.6085 94.1161V95.6651L133.488 81.3757V79.8926Z" fill="#C9B293"/>
<path d="M110.663 27.0119L62.7107 48.1405C62.3336 48.283 61.9171 48.283 61.5389 48.1405L13.5866 27.0119C12.2262 26.4977 12.1429 24.6045 13.4518 23.972L61.4041 0.5051C61.859 0.284758 62.3896 0.284758 62.8445 0.5051L110.797 23.972C112.107 24.6045 112.023 26.4977 110.663 27.0119Z" fill="#8BD3FF"/>
<path d="M-6.10352e-05 56.2989V73.2959C-6.10352e-05 73.6193 0.227964 73.8977 0.544774 73.9635L63.1141 86.8157C63.2139 86.8365 63.317 86.8343 63.4167 86.809L125.674 71.2448C125.977 71.1692 126.19 70.8962 126.19 70.5838V69.3034C126.19 69.0513 126.051 68.8189 125.827 68.7016L123.652 67.5505C123.425 67.431 123.285 67.1932 123.289 66.9366L123.443 57.7097C123.448 57.3611 123.717 57.0728 124.065 57.0421L125.617 56.9073C126.617 56.8207 127.386 55.9821 127.386 54.9768V54.5943C127.386 54.261 127.146 53.977 126.817 53.9222L67.3126 43.9488C67.2359 43.9356 67.1581 43.9367 67.0825 43.9499L0.562304 55.6291C0.236725 55.685 -6.10352e-05 55.9678 -6.10352e-05 56.2989Z" fill="#1481EA"/>
<path d="M-6.10352e-05 56.2989V73.2959C-6.10352e-05 73.6193 0.227964 73.8977 0.544774 73.9635L63.1141 86.8157C63.2139 86.8365 63.317 86.8343 63.4167 86.809L125.674 71.2448C125.977 71.1692 126.19 70.8962 126.19 70.5838V69.3034C126.19 69.0513 126.051 68.8189 125.827 68.7016L123.652 67.5505C123.425 67.431 123.285 67.1932 123.289 66.9366L123.443 57.7097C123.448 57.3611 123.717 57.0728 124.065 57.0421L125.235 56.9402C126.452 56.835 127.386 55.8155 127.386 54.5943C127.386 54.261 127.146 53.977 126.817 53.9222L67.3126 43.9488C67.2359 43.9356 67.1581 43.9367 67.0825 43.9499L0.562304 55.6291C0.236725 55.685 -6.10352e-05 55.9678 -6.10352e-05 56.2989Z" fill="#FFD25D"/>
<path d="M3.93262 62.8752V69.3045C3.93262 70.1607 4.53659 70.8974 5.3763 71.0651L61.1995 82.2455C62.8427 82.5743 64.5375 82.5414 66.1665 82.149L123.653 67.5517C123.426 67.4322 123.285 67.1943 123.29 66.9378L123.443 57.7108C123.096 57.7415 123.449 57.3622 123.443 57.7108L66.2498 71.8916C64.5671 72.329 62.8065 72.3805 61.1008 72.0418L6.0779 61.1146C4.96742 60.8932 3.93262 61.7428 3.93262 62.8752Z" fill="#D1C4A3"/>
<path d="M6.0779 61.1072C4.96742 60.8869 3.93262 61.7364 3.93262 62.8688V69.2982C3.93262 70.1544 4.53659 70.891 5.3763 71.0588L60.5637 82.112V71.928L6.0779 61.1072Z" fill="#C9B293"/>
<path d="M123.444 57.7081C123.096 57.7378 123.449 57.3573 123.444 57.7081V57.7081Z" fill="#D1C4A3"/>
<path d="M123.444 59.1913L60.563 73.4807L3.93304 62.8714L4.15558 62.0185C4.30796 60.5584 7.04633 61.3027 7.5758 61.4068L60.5641 71.9306L123.445 57.707L123.444 59.1913Z" fill="#BA9E7B"/>
<path d="M123.442 57.7109L60.5616 71.9345V73.4835L123.442 59.1941V57.7109Z" fill="#C9B293"/>
<path d="M68.3454 21.1855H55.9076C42.8417 21.1855 32.2488 31.7784 32.2488 44.8443V56.1936C32.2488 56.9489 32.8616 57.5616 33.6169 57.5616L51.3769 59.1007C58.5298 59.7201 65.7221 59.7201 72.8749 59.1007L90.635 57.5616C91.3903 57.5616 92.003 56.9489 92.003 56.1936V44.8443C92.0041 31.7773 81.4113 21.1855 68.3454 21.1855Z" fill="#1481EA"/>
<path d="M30.6064 86.2746L32.2486 86.8293V14.7754L30.6064 15.5548V86.2746Z" fill="#8BD3FF"/>
<path d="M34.9173 92.2004H33.9548C33.5667 92.2004 33.1951 92.0414 32.9265 91.7608L32.4113 91.2225C31.8676 90.6547 30.9665 90.635 30.3986 91.1787L29.7453 91.8046C29.48 92.0579 29.1281 92.2004 28.7609 92.2004H27.9365L29.7267 86.2347C29.9075 85.6329 30.4611 85.2207 31.0904 85.2207H31.9136C32.5549 85.2207 33.1162 85.6493 33.2861 86.2665L34.9173 92.2004Z" fill="#8BD3FF"/>
<path d="M31.4268 85.8281C32.8448 85.8281 33.9942 84.6786 33.9942 83.2607C33.9942 81.8428 32.8448 80.6934 31.4268 80.6934C30.0089 80.6934 28.8594 81.8428 28.8594 83.2607C28.8594 84.6786 30.0089 85.8281 31.4268 85.8281Z" fill="#1481EA"/>
</svg>
