<svg width="158" height="85" viewBox="0 0 158 85" fill="none" xmlns="http://www.w3.org/2000/svg">
<path d="M136.212 13.6875L134.233 11.6621L75.8255 71.4291L77.8048 73.4545L136.212 13.6875Z" fill="#D8C3A4"/>
<path d="M143.703 19.8846L141.928 17.6699L78.0605 71.2751L79.8357 73.4898L143.703 19.8846Z" fill="#D8C3A4"/>
<path d="M126.83 6.21666L124.538 4.57227L77.1171 73.7806L79.4091 75.425L126.83 6.21666Z" fill="#D8C3A4"/>
<path d="M80.8324 73.4668L82.8117 71.4414L24.4045 11.6744L22.4252 13.6998L80.8324 73.4668Z" fill="#D8C3A4"/>
<path d="M78.7489 73.4764L80.5241 71.2617L16.657 17.6565L14.8818 19.8712L78.7489 73.4764Z" fill="#D8C3A4"/>
<path d="M79.22 75.4003L81.5119 73.7559L34.0906 4.54753L31.7987 6.19193L79.22 75.4003Z" fill="#D8C3A4"/>
<path d="M82.1898 75.4197L79.6618 74.2534L114.374 0.294922L116.902 1.46002L82.1898 75.4197Z" fill="#D8C3A4"/>
<path d="M77.1162 75.7144L79.6645 74.5958L46.366 0L43.8165 1.11863L77.1162 75.7144Z" fill="#D8C3A4"/>
<path d="M75.8425 70.5183H83.0408C83.6977 70.5183 84.3383 70.3157 84.8805 69.9363L146.794 26.5641C147.524 26.0519 148.514 26.1822 149.094 26.866L151.651 29.88L83.5893 79.208H73.7217L4.18579 31.067L7.10726 27.0221C7.657 26.2609 8.69217 26.0725 9.46508 26.5912L74.0546 69.9725C74.5867 70.3286 75.207 70.5183 75.8425 70.5183Z" fill="#1481EA"/>
<path d="M75.1808 84.3743H83.5013C84.0069 84.3743 84.5012 84.2156 84.9172 83.9202L156.105 33.3329C157.436 32.3872 157.634 30.4506 156.523 29.2416C155.626 28.2649 154.164 28.1062 153.085 28.8674L85.5351 76.531C85.0156 76.8975 84.4003 77.0936 83.7698 77.0936H75.8087C75.1972 77.0936 74.5982 76.9091 74.0889 76.5633L3.68927 28.7655C2.67049 28.0727 1.3037 28.2855 0.532047 29.2571C-0.342999 30.3589 -0.112273 31.9885 1.03008 32.7923L73.7762 83.9266C74.1885 84.2182 74.6789 84.3743 75.1808 84.3743Z" fill="#94CCEF"/>
<path d="M84.021 63.2598H74.8595C74.4157 63.2598 74.0563 63.6275 74.0563 64.0829V73.4668H84.8255V64.0829C84.8242 63.6275 84.4649 63.2598 84.021 63.2598Z" fill="#1481EA"/>
<path d="M91.9983 64.9595V71.9744L94.8189 69.9991V76.9108L97.6747 74.8813L97.4061 72.3215L98.7616 67.2174L98.7099 60.2578L91.9983 64.9595Z" fill="#94CCEF"/>
<path d="M98.5416 74.2461L98.2869 84.3808L95.4058 80.5037L92.2688 84.7305V78.7039L98.5416 74.2461Z" fill="#94CCEF"/>
<path d="M96.6532 68.6965L92.7092 71.4782V78.39L99.1699 73.7994V66.9199L96.6532 68.6965Z" fill="#94CCEF"/>
</svg>
