<svg width="100" height="122" viewBox="0 0 100 122" fill="none" xmlns="http://www.w3.org/2000/svg">
<path d="M99.9967 121.184H4.84265C2.53276 121.184 0.658813 119.311 0.658813 117.001V4.75021C0.658813 2.44032 2.5315 0.566406 4.84265 0.566406H99.9967V121.184Z" fill="#94CCEF"/>
<path d="M10.9163 16.47C10.9163 21.1137 14.6818 24.8793 19.3256 24.8793H99.9962V8.06055H19.3256C14.6818 8.06055 10.9163 11.8249 10.9163 16.47Z" fill="#D8C3A4"/>
<path d="M4.31995 0.56764C2.29816 0.56764 0.660522 2.20655 0.660522 4.22707V117.525C0.660522 119.547 2.29943 121.185 4.31995 121.185H10.4131V0.566406L4.31995 0.56764Z" fill="#4F403D"/>
<path d="M11.8007 12.7916C13.1692 10.0002 16.011 8.06055 19.3293 8.06055H99.9998V12.7916H11.8007Z" fill="#1481EA"/>
<path d="M10.9168 16.4654C10.9168 16.4654 10.8056 12.624 14.3791 9.94387C16.0079 8.72195 18.041 8.15964 20.078 8.15711L99.9967 8.056V5.42773H18.2824C16.4666 5.42773 14.6508 5.90027 13.1761 6.96044C11.1126 8.44266 9.20457 11.2618 10.9168 16.4654Z" fill="#4F403D"/>
<path d="M60.4424 44.9803H50.1692C49.2594 44.9803 48.5227 44.2435 48.5227 43.3337V33.0605C48.5227 32.1507 49.2594 31.4141 50.1692 31.4141H60.4424C61.3522 31.4141 62.0889 32.1507 62.0889 33.0605V43.3337C62.0902 44.2423 61.3522 44.9803 60.4424 44.9803Z" fill="#1481EA"/>
<path d="M85.6879 44.9803H75.4147C74.5049 44.9803 73.7682 44.2435 73.7682 43.3337V33.0605C73.7682 32.1507 74.5049 31.4141 75.4147 31.4141H85.6879C86.5977 31.4141 87.3344 32.1507 87.3344 33.0605V43.3337C87.3344 44.2423 86.5977 44.9803 85.6879 44.9803Z" fill="#1481EA"/>
<path d="M34.8358 44.9803H24.5626C23.6528 44.9803 22.9161 44.2435 22.9161 43.3337V33.0605C22.9161 32.1507 23.6541 31.4141 24.5626 31.4141H34.8358C35.7456 31.4141 36.4823 32.1507 36.4823 33.0605V43.3337C36.4836 44.2423 35.7456 44.9803 34.8358 44.9803Z" fill="#1481EA"/>
<path d="M60.4424 115.129H50.1692C49.2594 115.129 48.5227 114.391 48.5227 113.482V103.209C48.5227 102.299 49.2594 101.562 50.1692 101.562H60.4424C61.3522 101.562 62.0889 102.299 62.0889 103.209V113.482C62.0902 114.391 61.3522 115.129 60.4424 115.129Z" fill="#1481EA"/>
<path d="M85.6879 115.129H75.4147C74.5049 115.129 73.7682 114.391 73.7682 113.482V103.209C73.7682 102.299 74.5049 101.562 75.4147 101.562H85.6879C86.5977 101.562 87.3344 102.299 87.3344 103.209V113.482C87.3344 114.391 86.5977 115.129 85.6879 115.129Z" fill="#1481EA"/>
<path d="M34.8358 115.129H24.5626C23.6528 115.129 22.9161 114.391 22.9161 113.482V103.209C22.9161 102.299 23.6541 101.562 24.5626 101.562H34.8358C35.7456 101.562 36.4823 102.299 36.4823 103.209V113.482C36.4836 114.391 35.7456 115.129 34.8358 115.129Z" fill="#1481EA"/>
<path d="M40.4369 85.1556V62.4624C40.4369 59.4057 43.6541 57.4181 46.3873 58.7853L69.0805 70.1325C72.1107 71.6476 72.1107 75.973 69.0805 77.488L46.3873 88.8353C43.6541 90.2 40.4369 88.2123 40.4369 85.1556Z" fill="#1481EA"/>
<path opacity="0.2" d="M48.524 24.873L99.9974 84.3958V114.481L19.3269 24.873H48.524Z" fill="#F7F3ED"/>
</svg>
