<svg width="138" height="108" viewBox="0 0 138 108" fill="none" xmlns="http://www.w3.org/2000/svg">
<path d="M1.2622 84.9004H137.304C137.688 84.9004 137.999 85.2117 137.999 85.5954V97.2845C137.999 97.6681 137.688 97.9795 137.304 97.9795H1.2622C0.878523 97.9795 0.5672 97.6681 0.5672 97.2845V85.5954C0.5672 85.2117 0.877426 84.9004 1.2622 84.9004Z" fill="#FFD25D"/>
<path d="M0.5672 92.877H138V97.2805C138 97.6642 137.689 97.9755 137.305 97.9755H1.2633C0.879618 97.9755 0.568295 97.6642 0.568295 97.2805L0.5672 92.877Z" fill="#F2BF4C"/>
<path d="M130.566 65.1844C130.566 76.3549 121.511 85.4098 110.341 85.4098C99.1701 85.4098 90.1152 76.3549 90.1152 65.1844C90.1152 57.5185 93.9049 48.9328 100.669 48.9559C105.599 48.9723 106.837 51.7227 110.341 51.7227C113.754 51.7227 116.29 48.6434 119.728 48.9559C126.491 49.5708 130.566 57.4275 130.566 65.1844Z" fill="#8D0002"/>
<path d="M111.726 51.5486L104.595 37.7592C104.512 37.598 104.29 37.5717 104.177 37.7132C103.301 38.805 100.502 42.8468 102.847 47.4016C102.849 47.406 102.849 47.4049 102.851 47.4093C102.895 47.4937 105.391 52.2601 111.513 51.9247C111.693 51.9148 111.811 51.712 111.726 51.5486Z" fill="#1481EA"/>
<path d="M31.055 0.845703H11.1442C10.4098 0.845703 9.81451 1.44093 9.81451 2.17541V83.6174C9.81451 84.3519 10.4098 84.9471 11.1442 84.9471H31.055C31.7895 84.9471 32.3847 84.3519 32.3847 83.6174V2.17541C32.3847 1.44093 31.7895 0.845703 31.055 0.845703Z" fill="#1481EA"/>
<path d="M42.0729 10.0032L33.6791 11.9917C32.9643 12.1605 32.5225 12.8775 32.6913 13.5922L49.3386 83.8724C49.5075 84.5872 50.2244 85.0289 50.9391 84.8601L59.3329 82.8716C60.0477 82.7028 60.4895 81.9858 60.3206 81.2711L43.6733 10.9909C43.5045 10.275 42.7876 9.83324 42.0729 10.0032Z" fill="#8D0002"/>
<path d="M56.2653 2.6845L43.9919 7.73699C43.3123 8.01653 42.9889 8.79376 43.2684 9.47232L74.0384 84.2252C74.318 84.9037 75.0952 85.2282 75.7737 84.9487L88.0471 79.8961C88.7257 79.6166 89.0501 78.8394 88.7706 78.1608L57.9995 3.40802C57.7211 2.72835 56.9438 2.40496 56.2653 2.6845Z" fill="#8BD3FF"/>
<path d="M32.3847 8.58789H9.81451V16.7953H32.3847V8.58789Z" fill="#FFD25D"/>
<path d="M32.3847 68.4141H9.81451V76.6215H32.3847V68.4141Z" fill="#FFD25D"/>
<path d="M40.1914 22.9533C41.8915 22.9533 43.2696 21.5751 43.2696 19.8751C43.2696 18.175 41.8915 16.7969 40.1914 16.7969C38.4914 16.7969 37.1132 18.175 37.1132 19.8751C37.1132 21.5751 38.4914 22.9533 40.1914 22.9533Z" fill="#FFD25D"/>
<path d="M55.0539 71.4922C55.0539 73.1925 53.6759 74.5705 51.9757 74.5705C50.2754 74.5705 48.8975 73.1925 48.8975 71.4922C48.8975 69.792 50.2754 68.4141 51.9757 68.4141C53.6759 68.4141 55.0539 69.7931 55.0539 71.4922Z" fill="#FFD25D"/>
<path d="M52.9804 9.88618L51.3952 10.5384C49.6292 11.2652 48.7873 13.2856 49.5141 15.0516L55.0939 28.6087C55.8207 30.3747 57.8411 31.2166 59.6071 30.4898L61.1911 29.8375C62.9572 29.1107 63.7991 27.0904 63.0723 25.3244L57.4925 11.7684C56.7657 10.0013 54.7453 9.15938 52.9804 9.88618Z" fill="#FFD25D"/>
<path d="M72.749 58.1107L71.1638 58.7629C69.3978 59.4897 68.5559 61.5101 69.2827 63.2761L74.8625 76.832C75.5893 78.598 77.6096 79.44 79.3756 78.7132L80.9608 78.0609C82.7268 77.3341 83.5687 75.3138 82.8419 73.5477L77.2621 59.9918C76.5353 58.2269 74.515 57.3839 72.749 58.1107Z" fill="#FFD25D"/>
<path d="M32.3847 70.4668H9.81451V74.57H32.3847V70.4668Z" fill="#8BD3FF"/>
<path d="M32.3847 10.6426H9.81451V14.7458H32.3847V10.6426Z" fill="#8BD3FF"/>
<path d="M21.8246 107.991H20.3754C18.7606 107.991 17.4517 106.682 17.4517 105.067V97.9766H24.7471V105.067C24.7482 106.682 23.4393 107.991 21.8246 107.991Z" fill="#5B4A45"/>
<path d="M116.126 107.991H114.677C113.062 107.991 111.753 106.682 111.753 105.067V97.9766H119.048V105.067C119.049 106.682 117.741 107.991 116.126 107.991Z" fill="#5B4A45"/>
</svg>
