<svg width="89" height="105" viewBox="0 0 89 105" fill="none" xmlns="http://www.w3.org/2000/svg">
<g opacity="0.5">
<path d="M33.1858 50.7793C29.3727 39.9578 26.8823 22.0596 38.2788 18.4388C49.6754 14.8181 65.6223 19.2833 69.4354 30.1049C73.2485 40.9264 59.3508 55.2202 47.9543 58.841C36.5577 62.4617 36.999 61.6009 33.1858 50.7793Z" fill="white" fill-opacity="0.7"/>
<path d="M60.8978 75.3931C61.6865 72.7568 64.5797 71.2276 67.36 71.9775C70.1403 72.7274 71.7549 75.4724 70.9662 78.1087C70.1776 80.745 66.0762 86.3132 63.2959 85.5633C67.4894 81.3375 60.1092 78.0294 60.8978 75.3931Z" fill="white" fill-opacity="0.7"/>
<path d="M46.3008 86.9921C47.1771 84.0629 50.3786 82.3602 53.4515 83.189C56.5245 84.0179 58.3053 87.0644 57.4291 89.9936C56.5528 92.9228 52.0089 99.1133 48.9359 98.2844C53.5795 93.5847 45.4246 89.9213 46.3008 86.9921Z" fill="white" fill-opacity="0.7"/>
<path d="M29.3456 82.2904C30.9152 79.6164 34.4704 78.6569 37.2865 80.1473C40.1025 81.6376 41.113 85.0135 39.5435 87.6875C37.9739 90.3615 32.014 95.4178 29.1979 93.9274C34.8947 90.3526 27.7761 84.9644 29.3456 82.2904Z" fill="white" fill-opacity="0.7"/>
<path d="M15.7051 67.583C16.5814 64.6538 19.7829 62.9512 22.8558 63.78C25.9288 64.6088 27.7096 67.6553 26.8334 70.5845C25.9571 73.5137 21.4132 79.7042 18.3402 78.8754C22.9838 74.1757 14.8289 70.5122 15.7051 67.583Z" fill="white" fill-opacity="0.7"/>
<path d="M24.3497 46.3408C25.1967 43.5093 23.5108 40.5739 20.5842 39.7846C17.6576 38.9952 14.5984 40.6507 13.7513 43.4823C12.9043 46.3139 13.2924 53.5874 16.2191 54.3768C14.9584 48.283 23.5026 49.1724 24.3497 46.3408Z" fill="white" fill-opacity="0.7"/>
</g>
</svg>
