<svg width="94" height="110" viewBox="0 0 94 110" fill="none" xmlns="http://www.w3.org/2000/svg">
<g opacity="0.6">
<path d="M57.22 55.3926C62.5864 43.8656 67.2656 24.4274 55.126 19.3317C42.9865 14.2361 24.9665 17.5873 19.6001 29.1143C14.2336 40.6414 27.9664 57.7181 40.1059 62.8138C52.2455 67.9094 51.8536 66.9197 57.22 55.3926Z" fill="white" fill-opacity="0.8"/>
<path d="M25.579 81.1039C24.9976 78.1279 21.9819 76.1634 18.8433 76.7163C15.7046 77.2691 13.6315 80.1298 14.2129 83.1058C14.7943 86.0819 18.7006 92.6059 21.8393 92.0531C17.6861 86.9962 26.1603 84.08 25.579 81.1039Z" fill="white" fill-opacity="0.8"/>
<path d="M40.7001 91.9867C40.0541 88.68 36.7183 86.4946 33.2492 87.1057C29.7802 87.7167 27.4916 90.8926 28.1376 94.1993C28.7836 97.5061 33.1091 104.758 36.5781 104.147C31.9813 98.5247 41.3461 95.2934 40.7001 91.9867Z" fill="white" fill-opacity="0.8"/>
<path d="M59.8564 88.4737C58.4204 85.3799 54.6149 83.9772 51.3566 85.3407C48.0984 86.7043 46.6212 90.3178 48.0572 93.4116C49.4932 96.5055 55.4988 102.648 58.757 101.285C52.8802 96.7967 61.2924 91.5676 59.8564 88.4737Z" fill="white" fill-opacity="0.8"/>
<path d="M76.1259 60.3125C75.4799 57.0058 72.1441 54.8205 68.675 55.4315C65.206 56.0425 62.9174 59.2184 63.5634 62.5251C64.2093 65.8319 68.5349 73.0834 72.0039 72.4724C67.4071 66.8505 76.7718 63.6192 76.1259 60.3125Z" fill="white" fill-opacity="0.8"/>
<path d="M68.925 36.1092C68.3006 32.9126 70.4727 29.8496 73.7765 29.2677C77.0804 28.6858 80.2648 30.8054 80.8893 34.0019C81.5137 37.1984 80.2983 45.1587 76.9944 45.7407C79.0415 39.1629 69.5494 39.3057 68.925 36.1092Z" fill="white" fill-opacity="0.8"/>
</g>
</svg>
