<svg width="32" height="40" viewBox="0 0 32 40" fill="none" xmlns="http://www.w3.org/2000/svg">
<g opacity="0.7">
<path d="M20.2061 15.6164C23.1042 20.4463 26.2202 28.9422 21.6202 32.2439C17.0201 35.5456 9.50695 35.4647 6.60884 30.6349C3.71073 25.805 8.20464 16.9068 12.8047 13.605C17.4047 10.3033 17.308 10.7866 20.2061 15.6164Z" fill="white"/>
<path d="M6.40108 12.731C6.35221 14.1361 5.25332 15.2752 3.94664 15.2752C2.63996 15.2752 1.6203 14.1361 1.66916 12.731V12.731C1.75879 10.1541 5.88688 10.0342 6.3858 12.5437C6.39793 12.6048 6.4033 12.6671 6.40108 12.731Z" fill="white"/>
<path d="M11.8453 6.54869C11.791 8.10989 10.5762 9.3755 9.13194 9.3755C7.68771 9.3755 6.56095 8.10989 6.61525 6.54869V6.54869C6.71481 3.68605 11.2856 3.55288 11.8289 6.34306C11.842 6.41009 11.8477 6.47854 11.8453 6.54869Z" fill="white"/>
<path d="M19.8276 6.61244C19.4397 8.14 17.9855 9.08615 16.5795 8.72572C15.1735 8.36528 14.3481 6.83476 14.7359 5.3072V5.3072C15.4474 2.50488 19.9082 3.50965 19.8559 6.39951C19.8546 6.47092 19.8455 6.54187 19.8276 6.61244Z" fill="white"/>
<path d="M27.5601 11.8506C27.5058 13.4118 26.291 14.6774 24.8468 14.6774C23.4026 14.6774 22.2758 13.4118 22.3301 11.8506V11.8506C22.4297 8.98793 27.0004 8.85476 27.5437 11.6449C27.5568 11.712 27.5625 11.7804 27.5601 11.8506Z" fill="white"/>
<path d="M26.1599 23.4767C26.1074 24.9858 27.1799 26.2092 28.5553 26.2092C29.9308 26.2092 31.0883 24.9858 31.1408 23.4767V23.4767C31.237 20.7111 26.8713 20.5827 26.1874 23.2847C26.1716 23.3473 26.1621 23.4112 26.1599 23.4767Z" fill="white"/>
</g>
</svg>
