<svg width="66" height="69" viewBox="0 0 66 69" fill="none" xmlns="http://www.w3.org/2000/svg">
<circle cx="33.3775" cy="36.5" r="31" stroke="#0E111E" stroke-width="3"/>
<path d="M19.8295 39C18.5495 39 17.9095 38.36 17.9095 37.08V35.88C17.9095 34.632 18.5495 34.008 19.8295 34.008H20.9815C22.1975 34.008 22.8055 34.632 22.8055 35.88V37.08C22.8055 38.36 22.1975 39 20.9815 39H19.8295ZM32.767 39C31.487 39 30.847 38.36 30.847 37.08V35.88C30.847 34.632 31.487 34.008 32.767 34.008H33.919C35.135 34.008 35.743 34.632 35.743 35.88V37.08C35.743 38.36 35.135 39 33.919 39H32.767ZM45.7045 39C44.4245 39 43.7845 38.36 43.7845 37.08V35.88C43.7845 34.632 44.4245 34.008 45.7045 34.008H46.8565C48.0725 34.008 48.6805 34.632 48.6805 35.88V37.08C48.6805 38.36 48.0725 39 46.8565 39H45.7045Z" fill="#0E111E"/>
</svg>
