<svg width="65" height="65" viewBox="0 0 65 65" fill="none" xmlns="http://www.w3.org/2000/svg">
<path d="M14.0066 29.8731C12.902 29.8694 12.0037 30.7619 12 31.8664C11.9964 32.971 12.8888 33.8694 13.9934 33.873L14.0066 29.8731ZM53.6193 33.418C54.4029 32.6395 54.4071 31.3732 53.6286 30.5895L40.9427 17.8197C40.1643 17.0361 38.8979 17.0319 38.1143 17.8104C37.3307 18.5888 37.3265 19.8552 38.105 20.6388L49.3813 31.9898L38.0304 43.2661C37.2467 44.0445 37.2426 45.3109 38.021 46.0945C38.7995 46.8781 40.0658 46.8823 40.8494 46.1038L53.6193 33.418ZM13.9934 33.873L52.2031 33.9991L52.2163 29.9991L14.0066 29.8731L13.9934 33.873Z" fill="white"/>
<circle cx="32.5" cy="32.5" r="31" transform="rotate(-90 32.5 32.5)" stroke="white" stroke-width="3"/>
</svg>
