<svg width="65" height="65" viewBox="0 0 65 65" fill="none" xmlns="http://www.w3.org/2000/svg">
<path d="M50.9934 35.1269C52.098 35.1306 52.9963 34.2381 53 33.1336C53.0036 32.029 52.1112 31.1306 51.0066 31.127L50.9934 35.1269ZM11.3807 31.582C10.5971 32.3605 10.5929 33.6268 11.3714 34.4105L24.0573 47.1803C24.8357 47.9639 26.1021 47.9681 26.8857 47.1896C27.6693 46.4112 27.6735 45.1448 26.895 44.3612L15.6187 33.0102L26.9696 21.7339C27.7533 20.9554 27.7574 19.6891 26.979 18.9055C26.2005 18.1219 24.9342 18.1177 24.1506 18.8962L11.3807 31.582ZM51.0066 31.127L12.7969 31.0009L12.7837 35.0009L50.9934 35.1269L51.0066 31.127Z" fill="white"/>
<circle cx="32.5" cy="32.5" r="31" transform="rotate(90 32.5 32.5)" stroke="white" stroke-width="3"/>
</svg>
