<svg width="26" height="26" viewBox="0 0 26 26" fill="none" xmlns="http://www.w3.org/2000/svg">
<path d="M5.88794 11.5186C5.33566 11.5167 4.88647 11.963 4.88465 12.5153C4.88283 13.0675 5.32906 13.5167 5.88135 13.5185L5.88794 11.5186ZM21.2855 13.2765C21.6773 12.8872 21.6794 12.2541 21.2901 11.8623L14.9472 5.47734C14.558 5.08553 13.9248 5.08344 13.533 5.47268C13.1412 5.86191 13.1391 6.49507 13.5283 6.88688L19.1665 12.5624L13.491 18.2005C13.0992 18.5898 13.0971 19.2229 13.4863 19.6147C13.8756 20.0065 14.5087 20.0086 14.9006 19.6194L21.2855 13.2765ZM5.88135 13.5185L20.5774 13.567L20.584 11.567L5.88794 11.5186L5.88135 13.5185Z" fill="#FFC200"/>
<circle cx="13" cy="12.7598" r="11.5" transform="rotate(-90 13 12.7598)" stroke="#FFC200" stroke-width="2"/>
</svg>
