<svg width="26" height="26" viewBox="0 0 26 26" fill="none" xmlns="http://www.w3.org/2000/svg">
<path d="M5.88794 11.835C5.33566 11.8331 4.88647 12.2794 4.88465 12.8317C4.88283 13.3839 5.32906 13.8331 5.88135 13.835L5.88794 11.835ZM21.2855 13.5929C21.6773 13.2036 21.6794 12.5705 21.2901 12.1787L14.9472 5.79375C14.558 5.40194 13.9248 5.39985 13.533 5.78908C13.1412 6.17832 13.1391 6.81148 13.5283 7.20329L19.1665 12.8788L13.491 18.5169C13.0992 18.9062 13.0971 19.5393 13.4863 19.9311C13.8756 20.323 14.5087 20.325 14.9006 19.9358L21.2855 13.5929ZM5.88135 13.835L20.5774 13.8834L20.584 11.8834L5.88794 11.835L5.88135 13.835Z" fill="#8BD3FF"/>
<circle cx="13" cy="13.0762" r="11.5" transform="rotate(-90 13 13.0762)" stroke="#8BD3FF" stroke-width="2"/>
</svg>
