<svg width="26" height="26" viewBox="0 0 26 26" fill="none" xmlns="http://www.w3.org/2000/svg">
<path d="M5.88791 11.6743C5.33563 11.6725 4.88644 12.1187 4.88462 12.671C4.8828 13.2233 5.32903 13.6725 5.88131 13.6743L5.88791 11.6743ZM21.2854 13.4322C21.6772 13.043 21.6793 12.4098 21.2901 12.018L14.9472 5.6331C14.5579 5.24129 13.9248 5.2392 13.533 5.62844C13.1412 6.01767 13.1391 6.65083 13.5283 7.04264L19.1665 12.7181L13.491 18.3563C13.0992 18.7455 13.0971 19.3787 13.4863 19.7705C13.8755 20.1623 14.5087 20.1644 14.9005 19.7752L21.2854 13.4322ZM5.88131 13.6743L20.5774 13.7228L20.584 11.7228L5.88791 11.6743L5.88131 13.6743Z" fill="#0E111E"/>
<circle cx="13" cy="12.9155" r="11.5" transform="rotate(-90 13 12.9155)" stroke="#0E111E" stroke-width="2"/>
</svg>
